<?xml version="1.0" standalone="no"?>
<!DOCTYPE svg PUBLIC "-//W3C//DTD SVG 20010904//EN"
 "http://www.w3.org/TR/2001/REC-SVG-20010904/DTD/svg10.dtd">
<svg version="1.0" xmlns="http://www.w3.org/2000/svg"
 width="1024.000000pt" height="1024.000000pt" viewBox="0 0 1024.000000 1024.000000"
 preserveAspectRatio="xMidYMid meet">

<g transform="translate(0.000000,1024.000000) scale(0.100000,-0.100000)"
fill="#000000" stroke="none">
<path d="M7845 9535 c-101 -23 -255 -86 -255 -105 0 -5 17 -33 38 -63 20 -29
48 -76 61 -105 24 -51 24 -51 51 -37 79 41 131 114 160 223 10 37 21 75 25 85
8 20 3 20 -80 2z"/>
<path d="M5200 9423 c-42 -16 -48 -32 -55 -153 l-7 -119 -40 -16 c-22 -9 -59
-18 -82 -21 -56 -8 -69 -36 -60 -133 4 -39 8 -71 10 -71 1 0 14 4 29 10 100
38 289 30 377 -15 l47 -25 5 43 c3 23 8 74 11 114 7 82 13 76 -94 87 -30 3
-61 11 -68 18 -11 11 -33 187 -33 266 0 22 -11 26 -40 15z"/>
<path d="M7380 9371 c-26 -15 -905 -306 -1090 -361 -96 -28 -242 -73 -325
-100 -82 -27 -206 -65 -275 -86 -69 -20 -128 -39 -133 -41 -4 -2 7 -25 24 -50
43 -62 79 -166 79 -230 0 -29 3 -53 8 -53 13 0 125 37 272 90 80 29 192 67
250 85 58 18 272 90 475 160 365 126 464 158 517 169 22 5 29 15 42 59 14 48
51 122 152 305 34 60 35 71 4 53z m-630 -421 c0 -5 -4 -10 -10 -10 -5 0 -10 5
-10 10 0 6 5 10 10 10 6 0 10 -4 10 -10z m-330 -38 c0 -15 -2 -15 -10 -2 -13
20 -13 33 0 25 6 -3 10 -14 10 -23z m150 -2 c0 -5 -2 -10 -4 -10 -3 0 -8 5
-11 10 -3 6 -1 10 4 10 6 0 11 -4 11 -10z m-300 -80 c0 -5 -5 -10 -11 -10 -5
0 -7 5 -4 10 3 6 8 10 11 10 2 0 4 -4 4 -10z m155 -30 c3 -5 1 -10 -4 -10 -6
0 -11 5 -11 10 0 6 2 10 4 10 3 0 8 -4 11 -10z m-465 -50 c0 -5 -2 -10 -4 -10
-3 0 -8 5 -11 10 -3 6 -1 10 4 10 6 0 11 -4 11 -10z"/>
<path d="M7483 9298 c-61 -94 -137 -226 -223 -388 -42 -80 -97 -181 -122 -225
-80 -141 -277 -502 -428 -785 -81 -151 -197 -365 -257 -475 -130 -238 -181
-333 -280 -522 l-74 -141 61 -4 61 -3 86 165 c139 267 256 481 373 685 32 55
122 222 200 370 79 149 194 358 255 465 62 107 147 260 190 340 91 171 196
340 210 340 10 -1 39 -44 108 -165 81 -141 261 -462 300 -535 21 -41 61 -111
87 -155 75 -126 193 -340 250 -455 29 -58 91 -172 137 -255 189 -333 271 -482
350 -635 90 -174 76 -160 160 -160 40 0 73 2 73 5 0 3 -19 38 -42 78 -23 40
-62 110 -88 157 -25 47 -72 130 -105 185 -32 55 -99 177 -150 270 -51 94 -118
217 -150 275 -32 58 -79 143 -105 190 -25 47 -101 182 -167 300 -66 118 -173
312 -238 430 -66 118 -150 267 -188 330 -38 63 -90 149 -115 190 -45 75 -121
190 -125 190 -2 0 -21 -28 -44 -62z"/>
<path d="M5080 8806 c-110 -32 -196 -100 -240 -191 -21 -42 -25 -65 -25 -145
0 -82 4 -103 27 -152 32 -69 92 -129 166 -165 50 -24 69 -28 147 -28 83 0 96
3 165 36 119 57 175 127 201 251 33 153 -64 336 -202 382 -71 23 -182 29 -239
12z m179 -203 c33 -24 71 -98 71 -138 0 -45 -39 -105 -84 -128 -83 -43 -172
-16 -215 64 -20 37 -23 53 -17 92 9 57 52 112 100 127 44 13 114 5 145 -17z"/>
<path d="M7508 8769 c-33 -12 -35 -42 -14 -151 14 -73 38 -118 67 -125 10 -3
19 -9 19 -14 0 -5 4 -9 8 -9 11 0 32 146 32 221 0 35 -5 61 -13 68 -21 17 -69
21 -99 10z"/>
<path d="M4624 8505 c-18 -8 -83 -30 -145 -48 -63 -19 -184 -61 -269 -92 -159
-59 -1019 -349 -1145 -386 -38 -12 -78 -25 -87 -30 -17 -9 -17 -11 0 -36 9
-15 42 -72 72 -128 30 -56 62 -111 71 -123 l16 -23 129 46 c225 81 487 169
944 320 392 129 526 174 538 181 2 2 -7 22 -21 46 -37 62 -57 142 -57 220 0
37 -3 68 -7 67 -5 0 -22 -7 -39 -14z m-54 -285 c0 -5 -4 -10 -10 -10 -5 0 -10
5 -10 10 0 6 5 10 10 10 6 0 10 -4 10 -10z m-133 -72 c-3 -8 -6 -5 -6 6 -1 11
2 17 5 13 3 -3 4 -12 1 -19z m-197 -8 c0 -5 -4 -10 -10 -10 -5 0 -10 5 -10 10
0 6 5 10 10 10 6 0 10 -4 10 -10z m-645 -80 c3 -5 1 -10 -4 -10 -6 0 -11 5
-11 10 0 6 2 10 4 10 3 0 8 -4 11 -10z m-105 -90 c0 -5 -2 -10 -4 -10 -3 0 -8
5 -11 10 -3 6 -1 10 4 10 6 0 11 -4 11 -10z m170 -20 c0 -5 -2 -10 -4 -10 -3
0 -8 5 -11 10 -3 6 -1 10 4 10 6 0 11 -4 11 -10z m-533 -112 c-3 -8 -6 -5 -6
6 -1 11 2 17 5 13 3 -3 4 -12 1 -19z m298 12 c3 -5 1 -10 -4 -10 -6 0 -11 5
-11 10 0 6 2 10 4 10 3 0 8 -4 11 -10z"/>
<path d="M6336 8388 c-14 -45 -34 -194 -27 -201 11 -11 172 -26 274 -27 92 0
101 14 35 57 -24 15 -86 57 -138 94 -120 84 -139 94 -144 77z"/>
<path d="M8589 8303 c-59 -38 -128 -87 -154 -110 l-49 -41 35 -7 c37 -7 232
10 290 25 l35 10 -15 92 c-9 50 -21 93 -26 95 -6 2 -58 -27 -116 -64z"/>
<path d="M7220 7874 c-179 -185 -329 -343 -333 -351 -9 -14 24 -49 505 -538
l167 -170 73 75 c493 503 608 623 608 633 0 15 -671 687 -685 687 -6 0 -157
-151 -335 -336z"/>
<path d="M5400 8060 c-114 -77 -280 -91 -397 -34 -32 15 -61 30 -64 31 -4 2
-9 -103 -13 -234 -9 -347 -28 -773 -41 -896 -6 -61 -32 -538 -40 -727 -13
-351 -16 -416 -25 -610 -6 -113 -12 -218 -15 -235 -2 -16 -7 -77 -10 -135 -3
-58 -8 -124 -11 -147 l-5 -43 436 0 436 0 -7 138 c-3 75 -8 140 -10 143 -6 11
-23 231 -38 514 -14 257 -19 350 -31 650 -8 189 -15 299 -25 390 -5 44 -12
132 -15 195 -4 63 -8 125 -10 136 -2 12 -6 104 -10 205 -3 101 -10 249 -15
329 -5 80 -12 193 -16 253 -4 70 -10 107 -17 107 -7 0 -32 -14 -57 -30z m-170
-340 c0 -5 -4 -10 -10 -10 -5 0 -10 5 -10 10 0 6 5 10 10 10 6 0 10 -4 10 -10z
m80 -430 c0 -5 -4 -10 -10 -10 -5 0 -10 5 -10 10 0 6 5 10 10 10 6 0 10 -4 10
-10z m-80 -14 c0 -3 -4 -8 -10 -11 -5 -3 -10 -1 -10 4 0 6 5 11 10 11 6 0 10
-2 10 -4z m170 -6 c0 -5 -4 -10 -10 -10 -5 0 -10 5 -10 10 0 6 5 10 10 10 6 0
10 -4 10 -10z m-90 -50 c0 -5 -4 -10 -10 -10 -5 0 -10 5 -10 10 0 6 5 10 10
10 6 0 10 -4 10 -10z m-170 -20 c0 -5 -4 -10 -10 -10 -5 0 -10 5 -10 10 0 6 5
10 10 10 6 0 10 -4 10 -10z m-65 -20 c-3 -5 -11 -10 -16 -10 -6 0 -7 5 -4 10
3 6 11 10 16 10 6 0 7 -4 4 -10z m115 -35 c0 -8 -4 -15 -10 -15 -5 0 -10 7
-10 15 0 8 5 15 10 15 6 0 10 -7 10 -15z m50 5 c0 -5 -4 -10 -10 -10 -5 0 -10
5 -10 10 0 6 5 10 10 10 6 0 10 -4 10 -10z m64 1 c3 -5 -1 -11 -9 -14 -9 -4
-12 -1 -8 9 6 16 10 17 17 5z m-164 -51 c0 -5 -4 -10 -10 -10 -5 0 -10 5 -10
10 0 6 5 10 10 10 6 0 10 -4 10 -10z m-90 -21 c0 -5 -4 -9 -10 -9 -5 0 -10 7
-10 16 0 8 5 12 10 9 6 -3 10 -10 10 -16z m200 12 c0 -6 -4 -13 -10 -16 -5 -3
-10 1 -10 9 0 9 5 16 10 16 6 0 10 -4 10 -9z m-50 -17 c0 -8 -4 -12 -10 -9 -5
3 -10 10 -10 16 0 5 5 9 10 9 6 0 10 -7 10 -16z m-48 -66 c-9 -9 -12 -7 -12
12 0 19 3 21 12 12 9 -9 9 -15 0 -24z m-61 -1 c-13 -13 -26 -3 -16 12 3 6 11
8 17 5 6 -4 6 -10 -1 -17z m129 13 c0 -5 -4 -10 -10 -10 -5 0 -10 5 -10 10 0
6 5 10 10 10 6 0 10 -4 10 -10z m70 0 c0 -5 -7 -10 -15 -10 -8 0 -15 5 -15 10
0 6 7 10 15 10 8 0 15 -4 15 -10z m-100 -75 c0 -8 -4 -15 -9 -15 -5 0 -11 7
-15 15 -3 9 0 15 9 15 8 0 15 -7 15 -15z m-170 -5 c0 -5 -5 -10 -11 -10 -5 0
-7 5 -4 10 3 6 8 10 11 10 2 0 4 -4 4 -10z m217 -12 c-3 -8 -6 -5 -6 6 -1 11
2 17 5 13 3 -3 4 -12 1 -19z m36 7 c-3 -9 -8 -14 -10 -11 -3 3 -2 9 2 15 9 16
15 13 8 -4z m-163 -20 c0 -8 -4 -15 -10 -15 -5 0 -10 7 -10 15 0 8 5 15 10 15
6 0 10 -7 10 -15z m90 -45 c0 -5 -4 -10 -10 -10 -5 0 -10 5 -10 10 0 6 5 10
10 10 6 0 10 -4 10 -10z m45 -11 c-10 -15 -25 -10 -19 6 4 8 10 12 15 9 5 -3
7 -10 4 -15z m-185 1 c0 -5 -4 -10 -10 -10 -5 0 -10 5 -10 10 0 6 5 10 10 10
6 0 10 -4 10 -10z m70 -9 c0 -6 -4 -13 -10 -16 -5 -3 -10 1 -10 9 0 9 5 16 10
16 6 0 10 -4 10 -9z m113 -49 c-3 -12 -9 -19 -14 -16 -5 3 -3 14 3 24 15 24
19 21 11 -8z m42 18 c-3 -5 -11 -10 -16 -10 -6 0 -7 5 -4 10 3 6 11 10 16 10
6 0 7 -4 4 -10z m55 0 c0 -5 -4 -10 -10 -10 -5 0 -10 5 -10 10 0 6 5 10 10 10
6 0 10 -4 10 -10z m-235 -39 c-3 -6 -11 -11 -17 -11 -6 0 -6 6 2 15 14 17 26
13 15 -4z m95 15 c0 -2 -7 -6 -15 -10 -8 -3 -15 -1 -15 4 0 6 7 10 15 10 8 0
15 -2 15 -4z m-180 -15 c0 -6 -4 -13 -10 -16 -5 -3 -10 1 -10 9 0 9 5 16 10
16 6 0 10 -4 10 -9z m390 -26 c7 -9 8 -15 2 -15 -5 0 -12 7 -16 15 -3 8 -4 15
-2 15 2 0 9 -7 16 -15z m-280 -12 c-1 -18 -18 -35 -24 -24 -4 6 -4 16 -1 21 7
12 25 13 25 3z m171 -16 c-13 -13 -26 -3 -16 12 3 6 11 8 17 5 6 -4 6 -10 -1
-17z m-81 -11 c0 -2 -7 -9 -15 -16 -12 -10 -15 -10 -15 4 0 9 7 16 15 16 8 0
15 -2 15 -4z m120 -6 c0 -5 -4 -10 -10 -10 -5 0 -10 5 -10 10 0 6 5 10 10 10
6 0 10 -4 10 -10z m60 0 c0 -5 -4 -10 -10 -10 -5 0 -10 5 -10 10 0 6 5 10 10
10 6 0 10 -4 10 -10z m-370 -40 c0 -5 -5 -10 -11 -10 -5 0 -7 5 -4 10 3 6 8
10 11 10 2 0 4 -4 4 -10z m198 -2 c-6 -18 -28 -21 -28 -4 0 9 7 16 16 16 9 0
14 -5 12 -12z m-128 -8 c0 -5 -4 -10 -10 -10 -5 0 -10 5 -10 10 0 6 5 10 10
10 6 0 10 -4 10 -10z m60 1 c0 -12 -20 -25 -27 -18 -7 7 6 27 18 27 5 0 9 -4
9 -9z m182 -53 c-9 -9 -12 -7 -12 12 0 19 3 21 12 12 9 -9 9 -15 0 -24z m-106
-25 c-10 -10 -19 5 -10 18 6 11 8 11 12 0 2 -7 1 -15 -2 -18z m64 23 c0 -2 -7
-7 -16 -10 -8 -3 -12 -2 -9 4 6 10 25 14 25 6z m-146 -31 c3 -8 1 -15 -4 -15
-6 0 -10 7 -10 15 0 8 2 15 4 15 2 0 6 -7 10 -15z m56 -5 c0 -5 -4 -10 -10
-10 -5 0 -10 5 -10 10 0 6 5 10 10 10 6 0 10 -4 10 -10z m196 -37 c-10 -10
-19 5 -10 18 6 11 8 11 12 0 2 -7 1 -15 -2 -18z m-141 7 c3 -5 2 -10 -4 -10
-5 0 -13 5 -16 10 -3 6 -2 10 4 10 5 0 13 -4 16 -10z m65 1 c0 -12 -20 -25
-27 -18 -7 7 6 27 18 27 5 0 9 -4 9 -9z m-118 -33 c-7 -7 -12 -8 -12 -2 0 14
12 26 19 19 2 -3 -1 -11 -7 -17z m-77 -8 c-3 -5 -10 -10 -16 -10 -5 0 -9 5 -9
10 0 6 7 10 16 10 8 0 12 -4 9 -10z m215 -30 c0 -5 -7 -10 -15 -10 -8 0 -15 5
-15 10 0 6 7 10 15 10 8 0 15 -4 15 -10z m-70 -4 c0 -2 -7 -9 -15 -16 -12 -10
-15 -10 -15 4 0 9 7 16 15 16 8 0 15 -2 15 -4z m-136 -40 c-21 -15 -30 -14
-19 3 3 6 14 11 23 11 13 0 13 -2 -4 -14z m66 -21 c-7 -9 -15 -13 -18 -10 -3
2 1 11 8 20 7 9 15 13 18 10 3 -2 -1 -11 -8 -20z m80 -10 c-7 -9 -15 -13 -17
-11 -7 7 7 26 19 26 6 0 6 -6 -2 -15z m70 6 c0 -6 -4 -13 -10 -16 -5 -3 -10 1
-10 9 0 9 5 16 10 16 6 0 10 -4 10 -9z m-106 -46 c3 -8 1 -15 -4 -15 -6 0 -10
7 -10 15 0 8 2 15 4 15 2 0 6 -7 10 -15z m56 1 c0 -3 -4 -8 -10 -11 -5 -3 -10
-1 -10 4 0 6 5 11 10 11 6 0 10 -2 10 -4z m-90 -10 c0 -2 -7 -7 -16 -10 -8 -3
-12 -2 -9 4 6 10 25 14 25 6z m-123 -28 c-3 -8 -6 -5 -6 6 -1 11 2 17 5 13 3
-3 4 -12 1 -19z m203 -8 c0 -5 -4 -10 -10 -10 -5 0 -10 5 -10 10 0 6 5 10 10
10 6 0 10 -4 10 -10z m-40 -20 c0 -5 -4 -10 -10 -10 -5 0 -10 5 -10 10 0 6 5
10 10 10 6 0 10 -4 10 -10z m-190 -50 c0 -5 -4 -10 -10 -10 -5 0 -10 5 -10 10
0 6 5 10 10 10 6 0 10 -4 10 -10z m85 -10 c-3 -5 -11 -10 -16 -10 -6 0 -7 5
-4 10 3 6 11 10 16 10 6 0 7 -4 4 -10z m180 0 c-3 -5 -10 -10 -16 -10 -5 0 -9
5 -9 10 0 6 7 10 16 10 8 0 12 -4 9 -10z m25 -44 c0 -3 -4 -8 -10 -11 -5 -3
-10 -1 -10 4 0 6 5 11 10 11 6 0 10 -2 10 -4z m120 -56 c0 -5 -2 -10 -4 -10
-3 0 -8 5 -11 10 -3 6 -1 10 4 10 6 0 11 -4 11 -10z m-230 -4 c0 -3 -4 -8 -10
-11 -5 -3 -10 -1 -10 4 0 6 5 11 10 11 6 0 10 -2 10 -4z m-150 -66 c0 -5 -5
-10 -11 -10 -5 0 -7 5 -4 10 3 6 8 10 11 10 2 0 4 -4 4 -10z m103 -40 c-7 -8
-22 24 -16 34 4 5 10 1 13 -10 4 -10 6 -21 3 -24z m87 -6 c0 -8 -5 -12 -10 -9
-6 4 -8 11 -5 16 9 14 15 11 15 -7z m130 -14 c0 -5 -4 -10 -10 -10 -5 0 -10 5
-10 10 0 6 5 10 10 10 6 0 10 -4 10 -10z m-45 -100 c3 -5 -1 -10 -9 -10 -9 0
-16 5 -16 10 0 6 4 10 9 10 6 0 13 -4 16 -10z m-95 -470 c0 -5 -4 -10 -10 -10
-5 0 -10 5 -10 10 0 6 5 10 10 10 6 0 10 -4 10 -10z m-110 -141 c0 -5 -4 -9
-10 -9 -5 0 -10 7 -10 16 0 8 5 12 10 9 6 -3 10 -10 10 -16z m-113 -21 c-3 -8
-6 -5 -6 6 -1 11 2 17 5 13 3 -3 4 -12 1 -19z m203 -68 c0 -5 -4 -10 -10 -10
-5 0 -10 5 -10 10 0 6 5 10 10 10 6 0 10 -4 10 -10z m240 -30 c0 -5 -2 -10 -4
-10 -3 0 -8 5 -11 10 -3 6 -1 10 4 10 6 0 11 -4 11 -10z"/>
<path d="M2818 7832 c-26 -63 -164 -320 -220 -407 -35 -56 -178 -305 -225
-395 -22 -41 -72 -131 -110 -200 -39 -69 -87 -156 -108 -195 -21 -38 -41 -74
-45 -80 -28 -39 -268 -526 -254 -515 11 8 51 45 89 81 39 37 87 81 108 100 28
24 59 73 113 181 41 82 109 211 151 286 42 75 93 166 113 202 98 174 407 706
430 740 16 22 18 19 112 -131 53 -85 117 -192 144 -239 26 -47 80 -139 119
-205 40 -66 100 -172 135 -235 35 -63 81 -143 103 -178 l40 -63 29 28 c56 53
55 54 -13 176 -201 362 -613 1064 -643 1096 -11 12 -24 21 -30 21 -6 0 -23
-31 -38 -68z"/>
<path d="M2620 7835 c-249 -86 -380 -152 -380 -190 0 -39 130 -91 255 -102 71
-6 72 -5 93 25 12 16 22 33 22 36 0 4 32 65 71 136 40 72 70 132 68 134 -2 2
-60 -16 -129 -39z"/>
<path d="M4224 7701 c-12 -5 -31 -22 -43 -37 -47 -60 -9 -134 70 -134 35 0 48
6 80 39 30 30 39 46 39 74 0 28 -5 36 -27 45 -43 17 -96 22 -119 13z"/>
<path d="M3560 7425 c-56 -57 -72 -79 -65 -89 54 -75 294 -362 323 -386 46
-37 90 -39 147 -5 47 27 96 96 121 169 20 58 17 62 -100 140 -45 30 -139 98
-210 150 -71 53 -132 96 -135 96 -4 0 -40 -34 -81 -75z"/>
<path d="M6593 7065 c-15 -20 -45 -47 -65 -62 -21 -14 -38 -29 -38 -34 0 -4
34 -44 75 -88 l75 -81 24 39 c13 20 52 63 86 94 l62 56 -54 27 c-29 14 -68 40
-86 55 -18 16 -37 29 -42 29 -5 0 -22 -16 -37 -35z"/>
<path d="M2772 7049 c-76 -38 -140 -108 -187 -203 -41 -85 -84 -229 -92 -308
-5 -52 -3 -62 32 -125 81 -145 132 -183 246 -183 53 0 77 6 139 36 108 51 125
71 160 184 51 168 71 253 77 335 7 101 -7 154 -55 207 -82 91 -207 114 -320
57z"/>
<path d="M8372 7007 c-39 -40 -72 -75 -72 -78 0 -3 31 -33 70 -67 l69 -62 70
54 c39 30 77 56 83 59 8 2 -17 36 -61 83 -41 43 -78 80 -81 82 -3 1 -38 -31
-78 -71z"/>
<path d="M1708 6823 c-48 -55 -51 -112 -9 -154 45 -44 94 -35 155 29 24 26 27
36 22 66 -5 28 -14 38 -49 55 -53 26 -99 27 -119 4z"/>
<path d="M4206 6759 c-43 -34 -59 -74 -46 -114 22 -66 101 -111 149 -84 33 19
71 93 71 141 0 33 -5 41 -32 58 -44 27 -108 26 -142 -1z"/>
<path d="M6312 6632 l-212 -2 18 -38 c11 -20 38 -89 61 -152 170 -460 387
-713 765 -890 85 -40 111 -48 122 -39 11 9 14 8 14 -4 0 -9 17 -19 44 -26 61
-15 66 -14 66 10 0 11 -4 18 -8 15 -16 -9 -31 10 -25 32 7 27 19 28 26 2 9
-36 50 -17 50 24 0 14 3 26 8 26 5 0 9 8 9 17 0 14 4 12 17 -7 12 -17 13 -25
5 -28 -7 -2 -10 -8 -6 -13 6 -10 -20 -52 -27 -44 -3 2 -13 -9 -23 -25 -17 -29
-17 -30 3 -30 11 0 21 8 24 18 3 13 6 11 15 -10 10 -25 17 -28 58 -28 36 0 45
3 41 15 -4 8 -2 17 3 20 12 7 13 26 3 24 -29 -5 -33 2 -16 26 21 29 33 32 33
7 0 -15 6 -18 31 -14 24 4 30 1 27 -9 -3 -8 -9 -14 -14 -14 -19 -1 -41 -21
-46 -42 -5 -20 -2 -23 21 -23 15 0 33 6 40 13 10 10 11 9 6 -5 -5 -13 0 -16
27 -15 24 2 34 7 36 22 2 11 9 26 14 33 12 14 32 17 23 3 -8 -14 16 -61 31
-61 11 0 11 5 3 24 -14 30 -5 71 21 94 11 9 20 22 20 29 0 7 6 13 13 13 23 0
28 -13 11 -31 -9 -10 -17 -32 -18 -51 -4 -46 -5 -48 -16 -48 -5 0 -10 12 -10
28 -1 22 -2 24 -10 10 -7 -11 -6 -25 1 -42 10 -22 17 -25 50 -22 21 2 45 9 53
15 10 8 16 9 21 1 9 -15 76 -13 73 3 -2 8 10 11 39 9 41 -2 129 15 201 41 23
8 32 17 32 33 0 30 17 40 25 14 3 -11 12 -20 18 -20 29 1 229 112 304 168 111
85 239 224 327 357 98 146 167 287 234 477 17 45 33 91 37 101 7 17 -50 17
-1236 15 -684 -2 -1340 -4 -1457 -6z m1108 -112 c0 -5 -5 -10 -11 -10 -5 0 -7
5 -4 10 3 6 8 10 11 10 2 0 4 -4 4 -10z m930 -15 c0 -8 -4 -15 -10 -15 -5 0
-7 7 -4 15 4 8 8 15 10 15 2 0 4 -7 4 -15z m-1350 -52 c0 -13 -3 -13 -15 -3
-8 7 -15 19 -15 27 0 13 3 13 15 3 8 -7 15 -19 15 -27z m290 11 c0 -8 -4 -12
-10 -9 -5 3 -10 13 -10 21 0 8 5 12 10 9 6 -3 10 -13 10 -21z m780 -49 c0 -8
-4 -15 -10 -15 -5 0 -10 7 -10 15 0 8 5 15 10 15 6 0 10 -7 10 -15z m-1273
-31 c-9 -9 -27 6 -27 22 0 13 2 13 16 -1 9 -9 14 -18 11 -21z m1650 14 c-3 -8
-6 -5 -6 6 -1 11 2 17 5 13 3 -3 4 -12 1 -19z m-1402 -8 c3 -5 1 -10 -4 -10
-6 0 -11 5 -11 10 0 6 2 10 4 10 3 0 8 -4 11 -10z m385 -16 c0 -8 -7 -14 -15
-14 -15 0 -21 21 -9 33 10 9 24 -2 24 -19z m420 11 c0 -8 -4 -15 -10 -15 -5 0
-10 7 -10 15 0 8 5 15 10 15 6 0 10 -7 10 -15z m-280 -4 c0 -6 -4 -13 -10 -16
-5 -3 -10 1 -10 9 0 9 5 16 10 16 6 0 10 -4 10 -9z m130 -22 c0 -5 -7 -6 -15
-3 -8 4 -15 13 -15 21 0 13 3 13 15 3 8 -7 15 -16 15 -21z m960 11 c0 -11 -4
-20 -10 -20 -5 0 -10 9 -10 20 0 11 5 20 10 20 6 0 10 -9 10 -20z m-380 -5 c0
-8 -4 -15 -10 -15 -5 0 -10 7 -10 15 0 8 5 15 10 15 6 0 10 -7 10 -15z m-356
-31 c3 -8 2 -12 -4 -9 -6 3 -10 10 -10 16 0 14 7 11 14 -7z m-177 -26 c-3 -8
-6 -5 -6 6 -1 11 2 17 5 13 3 -3 4 -12 1 -19z m-270 -20 c-3 -8 -6 -5 -6 6 -1
11 2 17 5 13 3 -3 4 -12 1 -19z m1083 12 c0 -5 -2 -10 -4 -10 -3 0 -8 5 -11
10 -3 6 -1 10 4 10 6 0 11 -4 11 -10z m-1473 -32 c-3 -7 -5 -2 -5 12 0 14 2
19 5 13 2 -7 2 -19 0 -25z m533 -4 c0 -8 -5 -12 -10 -9 -6 4 -8 11 -5 16 9 14
15 11 15 -7z m54 7 c3 -5 -1 -14 -8 -20 -16 -13 -32 2 -21 19 8 12 22 13 29 1z
m-804 -29 c0 -15 -2 -15 -10 -2 -13 20 -13 33 0 25 6 -3 10 -14 10 -23z m1145
18 c3 -5 1 -10 -4 -10 -6 0 -11 5 -11 10 0 6 2 10 4 10 3 0 8 -4 11 -10z m735
0 c0 -5 -4 -10 -10 -10 -5 0 -10 5 -10 10 0 6 5 10 10 10 6 0 10 -4 10 -10z
m-640 -31 c0 -5 -4 -9 -10 -9 -5 0 -10 7 -10 16 0 8 5 12 10 9 6 -3 10 -10 10
-16z m540 6 c0 -8 -4 -15 -10 -15 -5 0 -10 7 -10 15 0 8 5 15 10 15 6 0 10 -7
10 -15z m-1464 -32 c-10 -10 -19 5 -10 18 6 11 8 11 12 0 2 -7 1 -15 -2 -18z
m104 6 c0 -11 -4 -17 -10 -14 -5 3 -10 13 -10 21 0 8 5 14 10 14 6 0 10 -9 10
-21z m208 -1 c-5 -15 -23 -11 -26 6 -2 11 2 14 13 10 9 -4 14 -11 13 -16z
m272 -2 c0 -3 -4 -8 -10 -11 -5 -3 -10 -1 -10 4 0 6 5 11 10 11 6 0 10 -2 10
-4z m-150 -16 c0 -5 -4 -10 -10 -10 -5 0 -10 5 -10 10 0 6 5 10 10 10 6 0 10
-4 10 -10z m-852 -12 c16 -16 15 -28 -3 -28 -8 0 -15 2 -15 4 0 2 -3 11 -6 20
-7 19 7 21 24 4z m1247 2 c3 -5 1 -10 -4 -10 -6 0 -11 5 -11 10 0 6 2 10 4 10
3 0 8 -4 11 -10z m485 -5 c0 -8 -4 -15 -9 -15 -5 0 -11 7 -15 15 -3 9 0 15 9
15 8 0 15 -7 15 -15z m-1462 -41 c-10 -10 -28 6 -28 24 0 15 1 15 17 -1 9 -9
14 -19 11 -23z m1132 11 c-7 -9 -15 -13 -18 -10 -3 2 1 11 8 20 7 9 15 13 18
10 3 -2 -1 -11 -8 -20z m-1623 -7 c-3 -8 -6 -5 -6 6 -1 11 2 17 5 13 3 -3 4
-12 1 -19z m994 -11 c-16 -16 -26 0 -10 19 9 11 15 12 17 4 2 -6 -1 -17 -7
-23z m234 13 c0 -7 -6 -15 -12 -17 -8 -3 -13 4 -13 17 0 13 5 20 13 18 6 -3
12 -11 12 -18z m-625 -15 c0 -14 -4 -25 -10 -25 -5 0 -10 11 -10 25 0 14 5 25
10 25 6 0 10 -11 10 -25z m530 -1 c0 -8 -4 -12 -10 -9 -5 3 -10 13 -10 21 0 8
5 12 10 9 6 -3 10 -13 10 -21z m274 -5 c-8 -14 -24 -10 -24 6 0 9 6 12 15 9 8
-4 12 -10 9 -15z m51 11 c3 -5 1 -10 -4 -10 -6 0 -11 5 -11 10 0 6 2 10 4 10
3 0 8 -4 11 -10z m380 1 c10 -18 -17 -23 -33 -7 -15 15 -15 16 5 16 12 0 24
-4 28 -9z m-1477 -20 c3 -8 -1 -12 -9 -9 -7 2 -15 10 -17 17 -3 8 1 12 9 9 7
-2 15 -10 17 -17z m432 -14 c0 -7 -9 -13 -20 -14 -25 -2 -27 14 -2 20 9 3 18
5 20 6 1 0 2 -5 2 -12z m266 -24 c-11 -11 -19 6 -11 24 8 17 8 17 12 0 3 -10
2 -21 -1 -24z m-756 17 c0 -5 -4 -10 -10 -10 -5 0 -10 5 -10 10 0 6 5 10 10
10 6 0 10 -4 10 -10z m1452 -2 c6 -17 -1 -38 -13 -38 -5 0 -9 11 -9 25 0 26
14 34 22 13z m230 -20 c-9 -9 -12 -7 -12 12 0 19 3 21 12 12 9 -9 9 -15 0 -24z
m-810 -13 c-3 -5 -7 -4 -10 3 -2 7 -8 10 -13 6 -10 -6 -13 9 -3 19 9 9 33 -16
26 -28z m378 26 c0 -6 -4 -13 -10 -16 -5 -3 -10 1 -10 9 0 9 5 16 10 16 6 0
10 -4 10 -9z m120 -1 c0 -5 -5 -10 -11 -10 -5 0 -7 5 -4 10 3 6 8 10 11 10 2
0 4 -4 4 -10z m-370 -8 c0 -10 -41 -35 -47 -28 -8 8 8 27 18 21 5 -4 9 -1 9 4
0 6 5 11 10 11 6 0 10 -3 10 -8z m156 -19 c-10 -10 -19 5 -10 18 6 11 8 11 12
0 2 -7 1 -15 -2 -18z m411 8 c7 -10 9 -22 6 -25 -6 -6 -32 23 -33 37 0 14 15
7 27 -12z m-1763 -6 c-4 -8 -8 -15 -10 -15 -2 0 -4 7 -4 15 0 8 4 15 10 15 5
0 7 -7 4 -15z m1246 5 c0 -5 -2 -10 -4 -10 -3 0 -8 5 -11 10 -3 6 -1 10 4 10
6 0 11 -4 11 -10z m-810 -21 c0 -5 -4 -9 -10 -9 -5 0 -10 7 -10 16 0 8 5 12
10 9 6 -3 10 -10 10 -16z m110 6 c0 -8 -4 -15 -10 -15 -5 0 -7 7 -4 15 4 8 8
15 10 15 2 0 4 -7 4 -15z m252 0 c0 -5 -5 -11 -11 -13 -6 -2 -11 4 -11 13 0 9
5 15 11 13 6 -2 11 -8 11 -13z m1178 -6 c0 -5 -4 -9 -10 -9 -5 0 -10 7 -10 16
0 8 5 12 10 9 6 -3 10 -10 10 -16z m-1010 -5 c0 -8 -5 -12 -10 -9 -6 4 -8 11
-5 16 9 14 15 11 15 -7z m-863 -16 c-3 -8 -6 -5 -6 6 -1 11 2 17 5 13 3 -3 4
-12 1 -19z m1183 7 c0 -8 -4 -15 -10 -15 -5 0 -10 7 -10 15 0 8 5 15 10 15 6
0 10 -7 10 -15z m-1050 -26 c0 -5 -4 -9 -10 -9 -5 0 -10 7 -10 16 0 8 5 12 10
9 6 -3 10 -10 10 -16z m501 -22 c-7 -7 -15 -6 -26 3 -14 11 -13 14 2 26 15 10
19 10 27 -3 5 -9 4 -19 -3 -26z m339 11 c0 -5 -9 -3 -20 4 -11 7 -20 16 -20
20 0 5 9 3 20 -4 11 -7 20 -16 20 -20z m-207 7 c-3 -9 -8 -14 -10 -11 -3 3 -2
9 2 15 9 16 15 13 8 -4z m325 -7 c-7 -19 -38 -22 -38 -4 0 10 9 16 21 16 12 0
19 -5 17 -12z m42 2 c0 -5 -2 -10 -4 -10 -3 0 -8 5 -11 10 -3 6 -1 10 4 10 6
0 11 -4 11 -10z m134 -5 c-4 -8 -11 -15 -16 -15 -6 0 -5 6 2 15 7 8 14 15 16
15 2 0 1 -7 -2 -15z m216 5 c0 -5 -7 -10 -16 -10 -8 0 -12 5 -9 10 3 6 10 10
16 10 5 0 9 -4 9 -10z m100 0 c0 -5 -7 -10 -16 -10 -8 0 -12 5 -9 10 3 6 10
10 16 10 5 0 9 -4 9 -10z m-1355 -10 c3 -5 2 -10 -4 -10 -5 0 -13 5 -16 10 -3
6 -2 10 4 10 5 0 13 -4 16 -10z m291 -17 c-8 -8 -36 5 -36 17 0 7 6 7 21 0 11
-7 18 -14 15 -17z m-561 -22 c-10 -10 -34 10 -29 24 6 14 8 13 19 -2 8 -10 12
-20 10 -22z m1240 19 c-3 -5 -10 -10 -16 -10 -5 0 -9 5 -9 10 0 6 7 10 16 10
8 0 12 -4 9 -10z m585 1 c0 -6 -4 -13 -10 -16 -5 -3 -10 1 -10 9 0 9 5 16 10
16 6 0 10 -4 10 -9z m-1215 -11 c-3 -5 -12 -10 -18 -10 -7 0 -6 4 3 10 19 12
23 12 15 0z m313 -10 c-7 -11 -16 -20 -20 -20 -11 0 -10 9 5 25 18 21 29 18
15 -5z m42 10 c0 -5 -4 -10 -10 -10 -5 0 -10 5 -10 10 0 6 5 10 10 10 6 0 10
-4 10 -10z m-160 -10 c0 -5 -4 -10 -10 -10 -5 0 -10 5 -10 10 0 6 5 10 10 10
6 0 10 -4 10 -10z m632 -22 c-6 -6 -14 -9 -17 -6 -3 3 -3 13 1 22 5 12 10 14
17 7 8 -8 8 -14 -1 -23z m-762 -18 c0 -5 -11 -7 -25 -6 -24 1 -34 23 -18 39 7
7 43 -21 43 -33z m35 30 c3 -5 1 -10 -4 -10 -6 0 -11 5 -11 10 0 6 2 10 4 10
3 0 8 -4 11 -10z m-280 -10 c3 -5 1 -10 -4 -10 -6 0 -11 5 -11 10 0 6 2 10 4
10 3 0 8 -4 11 -10z m159 -11 c-3 -5 -10 -7 -15 -3 -5 3 -7 10 -3 15 3 5 10 7
15 3 5 -3 7 -10 3 -15z m166 11 c0 -5 -4 -10 -10 -10 -5 0 -10 5 -10 10 0 6 5
10 10 10 6 0 10 -4 10 -10z m425 -28 c0 -39 -21 -42 -28 -5 -6 32 0 46 16 40
7 -2 12 -18 12 -35z m585 31 c0 -5 -5 -15 -10 -23 -8 -12 -10 -11 -10 8 0 12
5 22 10 22 6 0 10 -3 10 -7z m-1940 -13 c0 -5 -4 -10 -10 -10 -5 0 -10 5 -10
10 0 6 5 10 10 10 6 0 10 -4 10 -10z m1209 -5 c7 3 8 0 5 -9 -9 -23 -31 -20
-37 5 -4 16 -3 18 8 9 8 -7 19 -9 24 -5z m91 5 c0 -5 -2 -10 -4 -10 -3 0 -8 5
-11 10 -3 6 -1 10 4 10 6 0 11 -4 11 -10z m156 -6 c-3 -9 -6 -20 -6 -25 0 -5
-4 -9 -10 -9 -5 0 -10 7 -10 15 0 8 5 15 11 15 5 0 7 5 4 10 -3 6 -1 10 5 10
7 0 9 -7 6 -16z m374 12 c0 -2 -7 -6 -15 -10 -8 -3 -15 -1 -15 4 0 6 7 10 15
10 8 0 15 -2 15 -4z m-1504 -33 c-10 -10 -19 5 -10 18 6 11 8 11 12 0 2 -7 1
-15 -2 -18z m190 0 c-10 -10 -19 5 -10 18 6 11 8 11 12 0 2 -7 1 -15 -2 -18z
m442 7 c-7 -10 -14 -18 -15 -16 -6 6 9 36 18 36 5 0 4 -9 -3 -20z m191 -6
c-14 -18 -24 -11 -15 11 3 9 11 13 16 10 8 -5 7 -11 -1 -21z m110 7 c7 -5 11
-14 7 -19 -9 -15 -36 -4 -36 14 0 16 9 18 29 5z m261 0 c0 -6 -4 -13 -10 -16
-5 -3 -10 1 -10 9 0 9 5 16 10 16 6 0 10 -4 10 -9z m121 -24 c-8 -8 -11 -7
-11 4 0 9 3 19 7 23 4 4 9 2 11 -4 3 -7 -1 -17 -7 -23z m-1486 3 c3 -5 1 -10
-4 -10 -6 0 -11 5 -11 10 0 6 2 10 4 10 3 0 8 -4 11 -10z m565 -5 c0 -8 -4
-15 -10 -15 -5 0 -10 7 -10 15 0 8 5 15 10 15 6 0 10 -7 10 -15z m366 3 c4 -7
4 -10 -1 -6 -4 4 -14 3 -22 -3 -10 -9 -13 -8 -13 5 0 19 26 22 36 4z m652 1
c-2 -6 -8 -10 -13 -10 -5 0 -11 4 -13 10 -2 6 4 11 13 11 9 0 15 -5 13 -11z
m-1454 -18 c3 -5 -1 -11 -9 -15 -9 -3 -15 0 -15 9 0 16 16 20 24 6z m356 -6
c0 -8 -4 -15 -10 -15 -5 0 -10 7 -10 15 0 8 5 15 10 15 6 0 10 -7 10 -15z
m370 0 c10 -13 9 -15 -8 -15 -15 0 -20 5 -16 15 4 8 7 15 9 15 1 0 8 -7 15
-15z m510 5 c0 -5 -2 -10 -4 -10 -3 0 -8 5 -11 10 -3 6 -1 10 4 10 6 0 11 -4
11 -10z m370 0 c0 -5 -5 -10 -11 -10 -5 0 -7 5 -4 10 3 6 8 10 11 10 2 0 4 -4
4 -10z m-470 -10 c0 -5 -4 -10 -10 -10 -5 0 -10 5 -10 10 0 6 5 10 10 10 6 0
10 -4 10 -10z m231 -11 c-12 -12 -25 -18 -28 -15 -9 9 18 36 35 36 12 0 11 -5
-7 -21z m139 11 c0 -5 -5 -10 -11 -10 -5 0 -7 5 -4 10 3 6 8 10 11 10 2 0 4
-4 4 -10z m-1254 -27 c-10 -10 -19 5 -10 18 6 11 8 11 12 0 2 -7 1 -15 -2 -18z
m387 13 c6 -16 -2 -28 -14 -20 -12 7 -11 34 0 34 5 0 11 -6 14 -14z m177 -2
c11 -11 3 -44 -10 -44 -4 0 -10 8 -14 18 -3 9 -9 22 -12 29 -6 14 22 11 36 -3z
m140 -8 c0 -7 -13 -13 -29 -13 -25 0 -28 3 -21 18 11 19 50 15 50 -5z m38 4
c-7 -11 -16 -16 -21 -11 -12 12 0 31 19 31 12 0 12 -3 2 -20z m-791 -22 c-3
-8 -6 -5 -6 6 -1 11 2 17 5 13 3 -3 4 -12 1 -19z m919 -5 c-10 -10 -19 5 -10
18 6 11 8 11 12 0 2 -7 1 -15 -2 -18z m-976 2 c0 -8 -4 -15 -10 -15 -5 0 -10
7 -10 15 0 8 5 15 10 15 6 0 10 -7 10 -15z m130 -1 c0 -8 -5 -12 -10 -9 -6 4
-8 11 -5 16 9 14 15 11 15 -7z m760 6 c0 -5 -4 -10 -10 -10 -5 0 -10 5 -10 10
0 6 5 10 10 10 6 0 10 -4 10 -10z m240 1 c0 -6 -4 -13 -10 -16 -5 -3 -10 -16
-10 -28 0 -16 -3 -18 -12 -9 -9 9 -9 18 0 37 11 24 32 35 32 16z m-545 -31
c-5 -8 -11 -8 -17 -2 -6 6 -7 16 -3 22 5 8 11 8 17 2 6 -6 7 -16 3 -22z m-755
10 c0 -5 -5 -10 -11 -10 -5 0 -7 5 -4 10 3 6 8 10 11 10 2 0 4 -4 4 -10z m935
-30 c2 -13 9 -28 15 -34 13 -13 13 -26 0 -26 -11 0 -40 64 -40 88 0 23 19 1
25 -28z m-317 -12 c-7 -4 -21 -5 -30 -2 -22 7 -24 -18 -3 -36 21 -18 19 -47
-5 -53 -24 -6 -25 -1 -5 20 19 18 9 39 -11 22 -22 -18 -11 48 12 70 17 17 21
17 37 3 13 -12 15 -17 5 -24z m592 26 c0 -2 -7 -4 -15 -4 -8 0 -15 4 -15 10 0
5 7 7 15 4 8 -4 15 -8 15 -10z m-900 2 c0 -3 -4 -8 -10 -11 -5 -3 -10 -1 -10
4 0 6 5 11 10 11 6 0 10 -2 10 -4z m390 -16 c0 -11 -7 -20 -15 -20 -17 0 -18
2 -9 24 9 23 24 20 24 -4z m338 8 c-6 -18 -28 -21 -28 -4 0 9 7 16 16 16 9 0
14 -5 12 -12z m-152 -13 c-3 -9 3 -20 14 -27 24 -16 27 -58 4 -58 -11 0 -14 5
-10 17 4 10 4 15 1 11 -4 -3 -15 1 -25 9 -16 14 -16 18 -4 30 8 8 12 19 9 24
-4 5 -1 9 5 9 7 0 10 -7 6 -15z m244 7 c0 -13 -12 -22 -22 -16 -10 6 -1 24 13
24 5 0 9 -4 9 -8z m400 4 c0 -3 -4 -8 -10 -11 -5 -3 -10 -1 -10 4 0 6 5 11 10
11 6 0 10 -2 10 -4z m-1420 -20 c0 -15 -18 -31 -26 -23 -7 7 7 37 17 37 5 0 9
-6 9 -14z m78 -4 c6 -18 -15 -14 -22 4 -4 10 -1 14 6 12 6 -2 14 -10 16 -16z
m216 -6 c-3 -9 -10 -16 -15 -16 -14 0 -11 28 4 33 16 6 19 3 11 -17z m74 12
c-6 -18 -28 -21 -28 -4 0 9 7 16 16 16 9 0 14 -5 12 -12z m306 -3 c-4 -8 -1
-15 5 -15 6 0 11 -4 11 -10 0 -5 -9 -10 -21 -10 -15 0 -19 4 -15 16 3 9 6 20
6 25 0 5 4 9 10 9 5 0 7 -7 4 -15z m680 0 c-6 -16 -34 -21 -34 -7 0 13 11 22
26 22 8 0 11 -6 8 -15z m-64 -11 c0 -14 -3 -14 -15 -4 -8 7 -15 14 -15 16 0 2
7 4 15 4 8 0 15 -7 15 -16z m-400 -14 c0 -5 -7 -10 -16 -10 -8 0 -12 5 -9 10
3 6 10 10 16 10 5 0 9 -4 9 -10z m220 -11 c0 -6 -4 -7 -10 -4 -5 3 -10 11 -10
16 0 6 5 7 10 4 6 -3 10 -11 10 -16z m40 11 c0 -5 -4 -10 -10 -10 -5 0 -10 5
-10 10 0 6 5 10 10 10 6 0 10 -4 10 -10z m80 -5 c0 -8 -4 -15 -10 -15 -5 0
-10 7 -10 15 0 8 5 15 10 15 6 0 10 -7 10 -15z m-1303 -1 c-3 -3 -12 -4 -19
-1 -8 3 -5 6 6 6 11 1 17 -2 13 -5z m460 -32 c2 -35 2 -36 -12 -18 -16 21 -19
39 -8 49 13 14 18 6 20 -31z m216 13 c-7 -21 -13 -19 -13 6 0 11 4 18 10 14 5
-3 7 -12 3 -20z m340 -19 c-3 -4 -9 -2 -14 5 -13 22 -11 31 5 17 8 -7 12 -17
9 -22z m67 24 c0 -5 -4 -10 -10 -10 -5 0 -10 5 -10 10 0 6 5 10 10 10 6 0 10
-4 10 -10z m34 -5 c-4 -8 -10 -15 -15 -15 -5 0 -9 7 -9 15 0 8 7 15 15 15 9 0
12 -6 9 -15z m-476 -31 c-10 -10 -28 6 -28 24 0 15 1 15 17 -1 9 -9 14 -19 11
-23z m135 14 c4 -12 4 -24 2 -26 -8 -8 -36 28 -30 38 10 16 22 11 28 -12z
m-606 -24 c-9 -18 -16 -23 -22 -15 -4 7 1 21 11 32 23 26 29 17 11 -17z m107
2 c-24 -18 -29 -14 -12 13 8 13 16 17 22 11 6 -6 3 -15 -10 -24z m94 11 c2
-12 -3 -17 -17 -17 -23 0 -24 1 -15 25 8 19 28 15 32 -8z m1052 3 c0 -11 -4
-20 -10 -20 -5 0 -10 9 -10 20 0 11 5 20 10 20 6 0 10 -9 10 -20z m-1340 -5
c-7 -8 -16 -12 -21 -9 -13 8 -1 24 18 24 13 0 13 -3 3 -15z m130 5 c0 -5 -4
-10 -10 -10 -5 0 -10 5 -10 10 0 6 5 10 10 10 6 0 10 -4 10 -10z m200 3 c0 -5
-7 -17 -15 -27 -15 -20 -15 -20 -15 0 0 12 3 24 7 27 9 9 23 9 23 0z m410 -8
c0 -8 -4 -15 -10 -15 -5 0 -10 7 -10 15 0 8 5 15 10 15 6 0 10 -7 10 -15z
m125 5 c3 -5 1 -10 -4 -10 -6 0 -11 5 -11 10 0 6 2 10 4 10 3 0 8 -4 11 -10z
m285 -4 c0 -16 -18 -31 -27 -22 -8 8 5 36 17 36 5 0 10 -6 10 -14z m75 4 c8
-13 -5 -13 -25 0 -13 8 -13 10 2 10 9 0 20 -4 23 -10z m-1300 -20 c3 -5 -1
-10 -9 -10 -9 0 -16 5 -16 10 0 6 4 10 9 10 6 0 13 -4 16 -10z m725 -26 c0
-14 -6 -24 -14 -24 -20 0 -29 16 -21 40 8 26 35 14 35 -16z m331 13 c-13 -13
-26 -3 -16 12 3 6 11 8 17 5 6 -4 6 -10 -1 -17z m319 13 c0 -5 -2 -10 -4 -10
-3 0 -8 5 -11 10 -3 6 -1 10 4 10 6 0 11 -4 11 -10z m-810 -21 c0 -5 -4 -9
-10 -9 -5 0 -10 7 -10 16 0 8 5 12 10 9 6 -3 10 -10 10 -16z m420 6 c7 -8 18
-15 26 -15 17 0 27 -17 18 -31 -4 -8 -9 -7 -15 2 -8 12 -11 11 -19 -1 -8 -13
-10 -12 -10 3 0 11 -9 21 -20 24 -21 5 -25 15 -13 26 10 11 19 8 33 -8z m325
5 c-3 -5 -11 -10 -16 -10 -6 0 -7 5 -4 10 3 6 11 10 16 10 6 0 7 -4 4 -10z
m-1015 -10 c0 -5 -4 -10 -10 -10 -5 0 -10 5 -10 10 0 6 5 10 10 10 6 0 10 -4
10 -10z m580 -6 c0 -11 6 -14 20 -9 11 3 20 2 20 -4 0 -16 -13 -19 -37 -10
-23 8 -32 39 -13 39 6 0 10 -7 10 -16z m256 -3 c-21 -23 -54 -18 -35 5 6 8 21
14 32 14 19 0 19 -1 3 -19z m-1016 -22 c0 -21 -7 -23 -29 -10 -12 8 -12 12 -2
25 16 19 31 12 31 -15z m523 -16 c-4 -24 -11 -33 -24 -33 -23 0 -25 13 -4 30
8 7 15 22 15 33 0 13 4 17 9 12 5 -6 7 -25 4 -42z m203 0 c-12 -12 -29 15 -21
34 7 17 8 16 18 -5 5 -12 7 -25 3 -29z m-256 22 c0 -8 -7 -15 -15 -15 -26 0
-18 20 13 29 1 1 2 -6 2 -14z m653 8 c4 -3 2 -12 -4 -20 -9 -10 -15 -10 -25
-2 -8 6 -14 15 -14 20 0 10 34 12 43 2z m84 -13 c1 -14 -4 -20 -18 -20 -17 0
-18 3 -9 20 6 11 14 20 18 20 4 0 8 -9 9 -20z m-1033 -5 c-6 -16 -34 -21 -34
-7 0 13 11 22 26 22 8 0 11 -6 8 -15z m234 -8 c2 -10 -3 -17 -12 -17 -10 0
-16 9 -16 21 0 24 23 21 28 -4z m632 13 c0 -5 -4 -10 -10 -10 -5 0 -10 5 -10
10 0 6 5 10 10 10 6 0 10 -4 10 -10z m-932 -9 c1 -1 -2 -11 -9 -22 -10 -19
-13 -20 -26 -6 -25 24 -6 39 35 28z m449 -46 c-2 -19 -8 -40 -15 -47 -11 -11
-12 -10 -7 5 4 10 2 17 -4 17 -6 0 -11 -7 -11 -15 0 -8 -4 -15 -10 -15 -18 0
-11 35 10 50 11 8 20 20 20 27 0 7 4 13 9 13 6 0 9 -16 8 -35z m42 26 c7 -5
12 -14 9 -21 -2 -7 -10 -4 -22 9 -19 21 -12 28 13 12z m225 0 c3 -4 -6 -13
-19 -19 -27 -12 -28 -12 -19 12 7 17 29 22 38 7z m108 -16 c0 -5 -5 -11 -11
-13 -6 -2 -11 4 -11 13 0 9 5 15 11 13 6 -2 11 -8 11 -13z m58 3 c0 6 5 12 11
12 15 0 2 -51 -18 -70 -14 -13 -15 -12 -11 12 3 15 2 27 -1 26 -19 -2 -22 4
-11 17 11 13 15 13 21 3 7 -10 9 -10 9 0z m-820 -8 c0 -5 -4 -10 -10 -10 -5 0
-10 5 -10 10 0 6 5 10 10 10 6 0 10 -4 10 -10z m556 -20 c20 8 24 6 24 -9 0
-26 -31 -36 -47 -16 -6 10 -16 14 -22 10 -7 -4 -8 0 -5 10 5 11 10 13 17 6 6
-6 18 -6 33 -1z m100 -2 c4 -6 2 -14 -4 -16 -7 -2 -12 -10 -12 -18 0 -8 -4
-14 -10 -14 -11 0 -14 43 -3 53 10 10 21 8 29 -5z m29 -27 c-9 -16 -25 -3 -18
15 4 10 9 12 15 6 6 -6 7 -15 3 -21z m39 12 c4 -9 0 -23 -9 -32 -13 -14 -15
-12 -15 17 0 34 14 43 24 15z m-514 -28 c0 -8 -2 -15 -4 -15 -2 0 -6 7 -10 15
-3 8 -1 15 4 15 6 0 10 -7 10 -15z m380 -5 c0 -5 -7 -10 -15 -10 -8 0 -15 5
-15 10 0 6 7 10 15 10 8 0 15 -4 15 -10z"/>
<path d="M3678 6598 c-19 -18 -60 -67 -91 -109 -31 -42 -107 -132 -167 -200
l-110 -123 83 -81 c46 -44 101 -102 122 -128 47 -59 109 -103 157 -112 74 -14
160 60 218 189 27 58 42 114 102 358 15 62 0 85 -94 139 -40 23 -92 55 -116
70 -23 16 -49 29 -57 29 -7 0 -29 -15 -47 -32z"/>
<path d="M2159 6132 c-138 -98 -221 -166 -231 -190 -5 -16 -8 -69 -5 -125 3
-86 7 -101 28 -123 56 -61 186 -96 221 -61 7 8 29 42 48 76 19 34 68 116 109
183 72 117 73 122 58 147 -21 37 -134 131 -155 131 -10 0 -43 -17 -73 -38z"/>
<path d="M1723 5840 c-33 -63 -79 -144 -101 -180 -21 -36 -53 -93 -70 -127
l-31 -61 70 -4 71 -3 45 95 c25 52 61 122 81 154 35 59 35 59 23 115 -7 31
-16 72 -20 91 -6 35 -7 34 -68 -80z"/>
<path d="M2732 5930 c-103 -9 -135 -24 -205 -96 -46 -48 -54 -74 -38 -133 15
-57 49 -102 104 -140 l43 -29 302 3 c344 5 336 3 393 94 61 95 61 166 3 231
-61 68 -113 80 -327 79 -100 -1 -224 -5 -275 -9z m48 -230 c0 -5 -2 -10 -4
-10 -3 0 -8 5 -11 10 -3 6 -1 10 4 10 6 0 11 -4 11 -10z m345 -50 c3 -5 1 -10
-4 -10 -6 0 -11 5 -11 10 0 6 2 10 4 10 3 0 8 -4 11 -10z"/>
<path d="M3958 5879 c-10 -17 -18 -37 -18 -45 0 -19 33 -85 123 -247 l71 -128
68 3 c37 1 68 3 68 3 0 12 -93 186 -129 244 -27 42 -64 103 -83 136 -42 73
-73 84 -100 34z"/>
<path d="M1811 5352 c-331 -2 -353 -3 -346 -20 4 -9 34 -95 66 -190 93 -277
173 -414 349 -596 104 -107 167 -153 338 -248 79 -44 193 -90 230 -92 15 -2
39 -8 54 -16 35 -17 53 -9 56 26 3 34 4 35 22 24 12 -8 13 -13 3 -30 -21 -33
-16 -38 45 -46 31 -3 65 -10 74 -15 10 -5 19 -5 22 0 9 15 45 20 40 6 -5 -13
29 -23 59 -17 21 4 23 32 2 32 -8 0 -15 5 -15 10 0 11 40 14 40 3 0 -5 7 -16
15 -27 18 -24 39 -12 23 14 -7 11 -9 23 -5 27 5 4 12 1 17 -7 7 -11 10 -7 10
15 0 30 15 55 32 55 4 0 8 -7 8 -15 0 -8 -5 -15 -11 -15 -6 0 -8 -7 -5 -17 4
-9 2 -20 -5 -23 -19 -13 12 -50 43 -50 34 0 38 7 31 58 -4 29 -10 41 -19 38
-17 -7 -26 21 -14 45 15 28 38 24 33 -5 -4 -17 1 -28 15 -37 15 -10 18 -18 12
-39 -12 -40 3 -57 44 -52 31 4 39 10 55 47 21 48 36 62 45 40 3 -8 -2 -18 -10
-23 -26 -14 -6 -42 31 -42 45 0 62 22 45 58 -7 16 -15 22 -17 15 -3 -7 -9 -13
-14 -13 -6 0 -7 4 -4 10 3 5 1 18 -5 29 -5 11 -12 37 -14 58 l-5 38 15 -28 c8
-15 13 -31 10 -36 -3 -5 8 -24 24 -42 17 -19 33 -44 36 -56 l6 -21 59 20 c32
11 57 24 53 29 -3 5 -1 16 4 25 8 15 10 15 15 0 7 -19 27 -20 62 -4 30 14 31
23 6 45 -21 17 -19 33 3 33 8 0 16 -13 20 -30 6 -34 23 -38 57 -12 13 10 47
31 74 47 104 60 222 156 301 247 156 180 239 322 329 563 31 83 63 160 70 172
13 19 12 22 -13 29 -26 7 -1774 12 -2501 6z m1299 -116 c0 -3 -4 -8 -10 -11
-5 -3 -10 -1 -10 4 0 6 5 11 10 11 6 0 10 -2 10 -4z m-802 -49 c3 -16 1 -17
-17 -5 -25 16 -27 31 -4 26 10 -2 19 -11 21 -21z m332 -7 c0 -5 -4 -10 -10
-10 -5 0 -10 5 -10 10 0 6 5 10 10 10 6 0 10 -4 10 -10z m735 -30 c3 -5 1 -10
-4 -10 -6 0 -11 5 -11 10 0 6 2 10 4 10 3 0 8 -4 11 -10z m-205 -30 c0 -11 -4
-20 -9 -20 -6 0 -9 9 -8 20 1 11 5 20 9 20 4 0 8 -9 8 -20z m-1392 -8 c6 -18
-15 -14 -22 4 -4 10 -1 14 6 12 6 -2 14 -10 16 -16z m346 3 c3 -8 1 -15 -4
-15 -6 0 -10 7 -10 15 0 8 2 15 4 15 2 0 6 -7 10 -15z m1859 -17 c7 -25 3 -33
-12 -23 -13 8 -15 45 -2 45 5 0 11 -10 14 -22z m-1213 -3 c0 -8 -4 -15 -9 -15
-13 0 -22 16 -14 24 11 11 23 6 23 -9z m125 5 c3 -5 1 -10 -4 -10 -6 0 -11 5
-11 10 0 6 2 10 4 10 3 0 8 -4 11 -10z m105 -10 c0 -5 -2 -10 -4 -10 -3 0 -8
5 -11 10 -3 6 -1 10 4 10 6 0 11 -4 11 -10z m565 -20 c3 -5 1 -10 -4 -10 -6 0
-11 5 -11 10 0 6 2 10 4 10 3 0 8 -4 11 -10z m-300 -20 c3 -5 -1 -10 -9 -10
-9 0 -16 5 -16 10 0 6 4 10 9 10 6 0 13 -4 16 -10z m-725 -10 c0 -5 -2 -10 -4
-10 -3 0 -8 5 -11 10 -3 6 -1 10 4 10 6 0 11 -4 11 -10z m1350 -11 c0 -5 -4
-9 -10 -9 -5 0 -10 7 -10 16 0 8 5 12 10 9 6 -3 10 -10 10 -16z m-450 -3 c0
-3 -4 -8 -10 -11 -5 -3 -10 -1 -10 4 0 6 5 11 10 11 6 0 10 -2 10 -4z m-1610
-26 c0 -5 -2 -10 -4 -10 -3 0 -8 5 -11 10 -3 6 -1 10 4 10 6 0 11 -4 11 -10z
m607 -12 c-3 -8 -6 -5 -6 6 -1 11 2 17 5 13 3 -3 4 -12 1 -19z m558 2 c3 -5
-1 -10 -9 -10 -9 0 -16 5 -16 10 0 6 4 10 9 10 6 0 13 -4 16 -10z m428 -25
c-7 -21 -13 -19 -13 6 0 11 4 18 10 14 5 -3 7 -12 3 -20z m-1219 0 c3 -8 1
-15 -4 -15 -6 0 -10 7 -10 15 0 8 2 15 4 15 2 0 6 -7 10 -15z m1131 5 c3 -5 1
-10 -4 -10 -6 0 -11 5 -11 10 0 6 2 10 4 10 3 0 8 -4 11 -10z m207 -12 c-7 -7
-12 -8 -12 -2 0 6 3 14 7 17 3 4 9 5 12 2 2 -3 -1 -11 -7 -17z m533 12 c3 -5
1 -10 -4 -10 -6 0 -11 5 -11 10 0 6 2 10 4 10 3 0 8 -4 11 -10z m-931 -16 c3
-8 2 -12 -4 -9 -6 3 -10 10 -10 16 0 14 7 11 14 -7z m-534 -10 c0 -8 -5 -12
-10 -9 -6 4 -8 11 -5 16 9 14 15 11 15 -7z m1380 6 c0 -5 -7 -10 -15 -10 -8 0
-15 5 -15 10 0 6 7 10 15 10 8 0 15 -4 15 -10z m-890 -10 c0 -5 -2 -10 -4 -10
-3 0 -8 5 -11 10 -3 6 -1 10 4 10 6 0 11 -4 11 -10z m-580 -15 c0 -8 -4 -15
-10 -15 -5 0 -7 7 -4 15 4 8 8 15 10 15 2 0 4 -7 4 -15z m300 0 c-7 -8 -14
-15 -15 -15 -2 0 -5 7 -9 15 -4 10 1 15 16 15 17 0 18 -2 8 -15z m820 11 c0
-3 -4 -8 -10 -11 -5 -3 -10 -1 -10 4 0 6 5 11 10 11 6 0 10 -2 10 -4z m170
-16 c0 -5 -4 -10 -10 -10 -5 0 -10 5 -10 10 0 6 5 10 10 10 6 0 10 -4 10 -10z
m-1870 -15 c0 -8 -2 -15 -4 -15 -2 0 -6 7 -10 15 -3 8 -1 15 4 15 6 0 10 -7
10 -15z m1420 -5 c0 -5 -6 -10 -14 -10 -8 0 -18 5 -21 10 -3 6 3 10 14 10 12
0 21 -4 21 -10z m455 -10 c3 -5 1 -10 -4 -10 -6 0 -11 5 -11 10 0 6 2 10 4 10
3 0 8 -4 11 -10z m-605 -15 c0 -8 -4 -15 -10 -15 -5 0 -10 7 -10 15 0 8 5 15
10 15 6 0 10 -7 10 -15z m-846 -10 c3 -8 1 -15 -4 -15 -6 0 -10 7 -10 15 0 8
2 15 4 15 2 0 6 -7 10 -15z m732 4 c3 -6 1 -16 -5 -22 -9 -9 -14 -8 -21 3 -5
8 -10 18 -10 23 0 11 28 8 36 -4z m151 -21 c-3 -8 -6 -5 -6 6 -1 11 2 17 5 13
3 -3 4 -12 1 -19z m-784 -3 c4 -8 2 -17 -3 -20 -6 -4 -10 3 -10 14 0 25 6 27
13 6z m427 5 c0 -5 -4 -10 -10 -10 -5 0 -10 5 -10 10 0 6 5 10 10 10 6 0 10
-4 10 -10z m440 -15 c0 -3 -9 -5 -20 -5 -11 0 -20 7 -20 15 0 13 4 14 20 5 11
-6 20 -13 20 -15z m-328 0 c0 -5 -5 -11 -11 -13 -6 -2 -11 4 -11 13 0 9 5 15
11 13 6 -2 11 -8 11 -13z m480 -7 c-7 -7 -12 -8 -12 -2 0 6 3 14 7 17 3 4 9 5
12 2 2 -3 -1 -11 -7 -17z m-1252 2 c0 -5 -7 -10 -15 -10 -8 0 -15 5 -15 10 0
6 7 10 15 10 8 0 15 -4 15 -10z m-40 -10 c0 -5 -4 -10 -10 -10 -5 0 -10 5 -10
10 0 6 5 10 10 10 6 0 10 -4 10 -10z m410 -5 c0 -8 -4 -15 -10 -15 -5 0 -10 7
-10 15 0 8 5 15 10 15 6 0 10 -7 10 -15z m1020 -37 c0 -11 -27 -10 -34 1 -4 5
-3 17 1 27 6 16 7 16 20 -2 7 -10 13 -21 13 -26z m-950 22 c0 -5 -4 -10 -10
-10 -5 0 -10 5 -10 10 0 6 5 10 10 10 6 0 10 -4 10 -10z m260 -6 c0 -8 -5 -12
-10 -9 -6 4 -8 11 -5 16 9 14 15 11 15 -7z m800 -11 c0 -19 -3 -24 -10 -17 -6
6 -8 18 -4 27 9 24 14 21 14 -10z m110 2 c-7 -8 -17 -12 -23 -8 -6 4 -3 11 8
19 23 17 32 10 15 -11z m-1058 -10 c-5 -26 -16 -32 -27 -15 -7 11 11 40 25 40
4 0 5 -11 2 -25z m268 -1 c0 -16 -16 -19 -25 -4 -8 13 4 32 16 25 5 -4 9 -13
9 -21z m140 11 c0 -9 -6 -12 -15 -9 -8 4 -15 10 -15 15 0 5 7 9 15 9 8 0 15
-7 15 -15z m79 -49 c0 -7 -2 -7 -6 2 -2 6 -13 12 -23 12 -14 0 -17 5 -12 22
l5 21 19 -22 c10 -13 18 -28 17 -35z m71 39 c0 -8 -4 -15 -10 -15 -5 0 -10 7
-10 15 0 8 5 15 10 15 6 0 10 -7 10 -15z m80 0 c0 -8 -4 -15 -10 -15 -5 0 -10
7 -10 15 0 8 5 15 10 15 6 0 10 -7 10 -15z m114 0 c-4 -8 -8 -15 -10 -15 -2 0
-4 7 -4 15 0 8 4 15 10 15 5 0 7 -7 4 -15z m413 -12 c1 -16 -1 -21 -4 -13 -3
8 -12 21 -21 28 -14 11 -14 12 4 12 14 0 20 -7 21 -27z m-1410 -5 c-3 -8 -6
-5 -6 6 -1 11 2 17 5 13 3 -3 4 -12 1 -19z m613 0 c0 -13 -23 -5 -28 10 -2 7
2 10 12 6 9 -3 16 -11 16 -16z m-215 1 c11 -17 -1 -21 -15 -4 -8 9 -8 15 -2
15 6 0 14 -5 17 -11z m-1055 -9 c0 -5 -2 -10 -4 -10 -3 0 -8 5 -11 10 -3 6 -1
10 4 10 6 0 11 -4 11 -10z m210 0 c0 -5 -4 -10 -10 -10 -5 0 -10 5 -10 10 0 6
5 10 10 10 6 0 10 -4 10 -10z m452 -32 c-7 -7 -12 -8 -12 -2 0 14 12 26 19 19
2 -3 -1 -11 -7 -17z m37 -20 c1 -5 -3 -8 -9 -8 -5 0 -10 12 -9 28 0 24 1 25 9
7 5 -11 9 -23 9 -27z m131 32 c0 -5 -7 -10 -16 -10 -8 0 -12 5 -9 10 3 6 10
10 16 10 5 0 9 -4 9 -10z m170 -10 c0 -5 -7 -10 -15 -10 -8 0 -15 5 -15 10 0
6 7 10 15 10 8 0 15 -4 15 -10z m70 0 c0 -5 -7 -10 -16 -10 -8 0 -12 5 -9 10
3 6 10 10 16 10 5 0 9 -4 9 -10z m189 -4 c8 -10 9 -16 1 -21 -5 -3 -10 0 -10
9 0 8 -6 17 -12 19 -8 4 -9 6 -2 6 6 1 17 -5 23 -13z m-899 -6 c0 -5 -4 -10
-10 -10 -5 0 -10 5 -10 10 0 6 5 10 10 10 6 0 10 -4 10 -10z m175 0 c3 -5 1
-10 -4 -10 -6 0 -11 5 -11 10 0 6 2 10 4 10 3 0 8 -4 11 -10z m635 -5 c10 -13
9 -15 -9 -15 -12 0 -21 6 -21 15 0 8 4 15 9 15 5 0 14 -7 21 -15z m130 -4 c0
-20 -17 -37 -27 -28 -7 8 7 47 18 47 5 0 9 -9 9 -19z m180 9 c0 -5 -4 -10 -10
-10 -5 0 -10 5 -10 10 0 6 5 10 10 10 6 0 10 -4 10 -10z m190 -17 c0 -13 -3
-13 -15 -3 -8 7 -15 16 -15 21 0 5 7 6 15 3 8 -4 15 -13 15 -21z m-839 4 c-1
-12 -15 -9 -19 4 -3 6 1 10 8 8 6 -3 11 -8 11 -12z m529 3 c0 -5 -4 -10 -10
-10 -5 0 -10 5 -10 10 0 6 5 10 10 10 6 0 10 -4 10 -10z m40 6 c0 -11 -19 -15
-25 -6 -3 5 1 10 9 10 9 0 16 -2 16 -4z m402 -18 c-12 -12 -35 -1 -27 12 3 5
13 6 21 3 10 -4 12 -9 6 -15z m-834 -16 c6 -18 -15 -14 -22 4 -4 10 -1 14 6
12 6 -2 14 -10 16 -16z m-798 -30 c-7 -3 -16 2 -21 9 -16 25 -9 32 12 13 13
-12 16 -20 9 -22z m1417 11 c-3 -3 -11 -2 -17 2 -9 6 -9 10 1 16 14 8 27 -7
16 -18z m383 17 c0 -5 -4 -10 -10 -10 -5 0 -10 5 -10 10 0 6 5 10 10 10 6 0
10 -4 10 -10z m-842 -12 c-3 -7 -11 -13 -18 -13 -7 0 -15 6 -17 13 -3 7 4 12
17 12 13 0 20 -5 18 -12z m292 8 c0 -3 -4 -8 -10 -11 -5 -3 -10 -1 -10 4 0 6
5 11 10 11 6 0 10 -2 10 -4z m508 -26 c-8 -12 -16 -16 -21 -11 -6 6 -4 15 4
24 19 20 31 10 17 -13z m-471 -2 c-3 -8 -6 -5 -6 6 -1 11 2 17 5 13 3 -3 4
-12 1 -19z m-897 2 c0 -5 -5 -10 -11 -10 -5 0 -7 5 -4 10 3 6 8 10 11 10 2 0
4 -4 4 -10z m244 -9 c2 -3 -9 -6 -25 -7 -17 -1 -29 4 -29 11 0 12 46 9 54 -4z
m134 -11 c4 -21 2 -22 -12 -7 -19 19 -21 40 -3 35 6 -3 14 -15 15 -28z m552
20 c0 -5 -4 -10 -10 -10 -5 0 -10 5 -10 10 0 6 5 10 10 10 6 0 10 -4 10 -10z
m212 -12 c-7 -7 -12 -8 -12 -2 0 6 3 14 7 17 3 4 9 5 12 2 2 -3 -1 -11 -7 -17z
m-523 3 c9 -6 10 -11 2 -15 -13 -8 -31 1 -31 15 0 11 11 11 29 0z m51 -21
c-18 -11 -24 -6 -16 16 5 14 9 15 19 5 9 -9 9 -14 -3 -21z m-735 10 c3 -5 1
-10 -4 -10 -6 0 -11 5 -11 10 0 6 2 10 4 10 3 0 8 -4 11 -10z m843 -7 c-5 -25
-28 -28 -28 -4 0 12 6 21 16 21 9 0 14 -7 12 -17z m-878 -9 c0 -8 -4 -12 -10
-9 -5 3 -10 10 -10 16 0 5 5 9 10 9 6 0 10 -7 10 -16z m400 6 c0 -5 -4 -10
-10 -10 -5 0 -10 5 -10 10 0 6 5 10 10 10 6 0 10 -4 10 -10z m-530 -4 c0 -3
-4 -8 -10 -11 -5 -3 -10 -1 -10 4 0 6 5 11 10 11 6 0 10 -2 10 -4z m1185 -6
c-3 -5 -11 -10 -16 -10 -6 0 -7 5 -4 10 3 6 11 10 16 10 6 0 7 -4 4 -10z m202
-12 c-10 -5 -14 -15 -10 -25 4 -11 3 -14 -5 -9 -7 4 -12 13 -12 20 0 17 21 36
33 29 5 -3 3 -10 -6 -15z m-994 -12 c-10 -13 -19 -23 -21 -21 -7 6 19 45 29
45 5 0 2 -11 -8 -24z m727 15 c0 -5 -7 -14 -15 -21 -12 -10 -15 -10 -15 2 0 8
3 18 7 21 9 10 23 9 23 -2z m-1275 -11 c3 -5 1 -10 -4 -10 -6 0 -11 5 -11 10
0 6 2 10 4 10 3 0 8 -4 11 -10z m217 -12 c-7 -7 -12 -8 -12 -2 0 14 12 26 19
19 2 -3 -1 -11 -7 -17z m668 8 c0 -8 -4 -18 -10 -21 -5 -3 -10 3 -10 14 0 12
5 21 10 21 6 0 10 -6 10 -14z m60 -2 c0 -8 -5 -12 -10 -9 -6 4 -8 11 -5 16 9
14 15 11 15 -7z m351 -17 c-8 -8 -11 -7 -11 4 0 20 13 34 18 19 3 -7 -1 -17
-7 -23z m-1187 8 c-7 -16 -24 -21 -24 -6 0 8 7 13 27 20 1 1 0 -6 -3 -14z
m346 1 c0 -15 -18 -31 -26 -23 -7 7 7 37 17 37 5 0 9 -6 9 -14z m180 -1 c0 -8
-7 -15 -15 -15 -8 0 -15 7 -15 15 0 8 7 15 15 15 8 0 15 -7 15 -15z m170 6 c0
-12 -20 -25 -27 -18 -7 7 6 27 18 27 5 0 9 -4 9 -9z m258 -14 c4 -19 -32 -25
-43 -7 -3 6 -1 10 5 10 6 0 8 5 4 11 -4 7 1 10 12 7 10 -2 20 -11 22 -21z
m402 14 c0 -6 -4 -13 -10 -16 -5 -3 -10 1 -10 9 0 9 5 16 10 16 6 0 10 -4 10
-9z m255 -1 c-3 -5 -10 -10 -16 -10 -5 0 -9 5 -9 10 0 6 7 10 16 10 8 0 12 -4
9 -10z m-996 -13 c6 -8 8 -16 5 -20 -10 -9 -34 4 -34 19 0 18 14 18 29 1z
m271 -7 c22 -22 26 -45 10 -55 -6 -4 -10 5 -10 20 0 14 -7 28 -15 31 -8 4 -15
10 -15 15 0 14 8 11 30 -11z m117 -24 c-8 -25 -26 -15 -24 13 2 28 3 29 15 14
7 -9 11 -22 9 -27z m114 1 c-16 -16 -26 0 -10 19 9 11 15 12 17 4 2 -6 -1 -17
-7 -23z m-317 17 c12 -5 13 -9 3 -25 -15 -24 -23 -24 -30 0 -7 28 1 35 27 25z
m-574 -14 c0 -5 -4 -10 -10 -10 -5 0 -10 5 -10 10 0 6 5 10 10 10 6 0 10 -4
10 -10z m1090 -10 c0 -11 -4 -20 -10 -20 -5 0 -10 9 -10 20 0 11 5 20 10 20 6
0 10 -9 10 -20z m-853 -5 c0 -8 -4 -12 -9 -9 -5 3 -6 10 -3 15 9 13 12 11 12
-6z m252 1 c9 -10 8 -15 -3 -19 -16 -7 -26 1 -26 20 0 17 14 17 29 -1z m791 4
c0 -5 -4 -10 -10 -10 -5 0 -10 5 -10 10 0 6 5 10 10 10 6 0 10 -4 10 -10z
m-1534 -27 c-10 -10 -19 5 -10 18 6 11 8 11 12 0 2 -7 1 -15 -2 -18z m569 18
c3 -5 1 -12 -5 -16 -5 -3 -10 1 -10 9 0 18 6 21 15 7z m715 -22 c0 -10 -4 -19
-10 -19 -5 0 -10 12 -10 26 0 14 4 23 10 19 6 -3 10 -15 10 -26z m-1115 11 c3
-5 -1 -10 -10 -10 -9 0 -13 5 -10 10 3 6 8 10 10 10 2 0 7 -4 10 -10z m-85
-10 c0 -5 -4 -10 -10 -10 -5 0 -10 5 -10 10 0 6 5 10 10 10 6 0 10 -4 10 -10z
m605 -18 c-3 -8 0 -19 7 -23 17 -10 3 -23 -17 -16 -15 6 -21 48 -9 60 11 11
26 -4 19 -21z m-220 7 c10 -15 -1 -23 -20 -15 -9 3 -13 10 -10 16 8 13 22 13
30 -1z m143 -1 c18 -18 -3 -47 -29 -41 -19 5 -21 3 -17 -15 4 -15 2 -22 -8
-22 -8 0 -14 6 -14 13 1 17 25 47 38 47 6 0 9 7 6 15 -7 18 7 20 24 3z m403
-11 c-13 -13 -26 -3 -16 12 3 6 11 8 17 5 6 -4 6 -10 -1 -17z m84 13 c3 -5 1
-10 -4 -10 -6 0 -11 5 -11 10 0 6 2 10 4 10 3 0 8 -4 11 -10z m130 -11 c6 -19
0 -38 -9 -28 -10 12 -16 49 -7 49 5 0 13 -9 16 -21z m-1260 1 c3 -5 -1 -10 -9
-10 -9 0 -16 5 -16 10 0 6 4 10 9 10 6 0 13 -4 16 -10z m442 -15 c-7 -14 -18
-25 -25 -25 -10 0 -9 4 2 16 9 8 16 20 16 25 0 5 4 9 9 9 5 0 4 -11 -2 -25z
m348 15 c3 -5 -1 -10 -9 -10 -8 0 -18 5 -21 10 -3 6 1 10 9 10 8 0 18 -4 21
-10z m400 1 c3 -5 1 -12 -4 -15 -5 -3 -11 1 -15 9 -6 16 9 21 19 6z m278 -16
c-5 -14 -43 -22 -43 -9 0 11 34 33 42 28 4 -3 5 -11 1 -19z m-1253 7 c0 -13
-12 -22 -22 -16 -10 6 -1 24 13 24 5 0 9 -4 9 -8z m724 -21 c14 -26 14 -30 -5
-47 -20 -18 -20 -18 -17 11 2 23 -1 30 -14 29 -14 -1 -16 2 -7 17 14 26 26 24
43 -10z m-824 10 c0 -18 -18 -21 -30 -6 -10 13 -9 15 9 15 11 0 21 -4 21 -9z
m750 -12 c0 -6 -4 -7 -10 -4 -5 3 -10 11 -10 16 0 6 5 7 10 4 6 -3 10 -11 10
-16z m250 7 c0 -15 -18 -31 -26 -23 -7 7 7 37 17 37 5 0 9 -6 9 -14z m290 -1
c0 -8 -4 -15 -10 -15 -5 0 -10 7 -10 15 0 8 5 15 10 15 6 0 10 -7 10 -15z
m-1070 1 c0 -3 -4 -8 -10 -11 -5 -3 -10 -1 -10 4 0 6 5 11 10 11 6 0 10 -2 10
-4z m190 -10 c0 -8 -4 -18 -10 -21 -5 -3 -10 3 -10 14 0 12 5 21 10 21 6 0 10
-6 10 -14z m282 -1 c0 -5 -5 -11 -11 -13 -6 -2 -11 4 -11 13 0 9 5 15 11 13 6
-2 11 -8 11 -13z m178 5 c0 -5 -7 -10 -15 -10 -8 0 -15 5 -15 10 0 6 7 10 15
10 8 0 15 -4 15 -10z m170 -21 c0 -6 -4 -7 -10 -4 -5 3 -10 11 -10 16 0 6 5 7
10 4 6 -3 10 -11 10 -16z m195 -26 c-1 -21 -3 -40 -4 -43 -1 -3 -7 6 -15 20
-11 21 -11 28 2 43 21 23 21 22 17 -20z m-1035 15 c0 -4 -7 -8 -15 -8 -8 0
-15 4 -15 8 0 5 7 9 15 9 8 0 15 -4 15 -9z m150 -2 c0 -16 -18 -31 -27 -22 -8
8 5 36 17 36 5 0 10 -6 10 -14z m274 -1 c-4 -8 -8 -15 -10 -15 -2 0 -4 7 -4
15 0 8 4 15 10 15 5 0 7 -7 4 -15z m141 6 c3 -5 1 -12 -5 -16 -5 -3 -10 1 -10
9 0 18 6 21 15 7z m115 -7 c0 -2 -7 -4 -15 -4 -8 0 -15 4 -15 10 0 5 7 7 15 4
8 -4 15 -8 15 -10z m208 -2 c6 -18 -15 -14 -22 4 -4 10 -1 14 6 12 6 -2 14
-10 16 -16z m267 9 c3 -5 1 -12 -5 -16 -5 -3 -10 1 -10 9 0 18 6 21 15 7z
m-1398 -17 c3 -8 0 -21 -7 -27 -10 -10 -11 -7 -5 12 6 20 4 23 -9 18 -9 -4
-16 -2 -16 3 0 16 30 11 37 -6z m323 8 c0 -11 -22 -32 -32 -32 -5 0 -4 9 2 20
11 20 30 28 30 12z m440 -13 c0 -6 -4 -7 -10 -4 -5 3 -10 11 -10 16 0 6 5 7
10 4 6 -3 10 -11 10 -16z m-603 -1 c3 6 9 10 13 7 5 -3 2 -14 -7 -25 -16 -18
-39 -18 -28 1 4 5 1 9 -4 9 -6 0 -11 5 -11 11 0 8 6 7 17 -2 13 -11 17 -11 20
-1z m478 2 c3 -5 -1 -10 -10 -10 -9 0 -13 5 -10 10 3 6 8 10 10 10 2 0 7 -4
10 -10z m345 0 c0 -5 -4 -10 -10 -10 -5 0 -10 5 -10 10 0 6 5 10 10 10 6 0 10
-4 10 -10z m110 0 c0 -5 -4 -10 -10 -10 -5 0 -10 5 -10 10 0 6 5 10 10 10 6 0
10 -4 10 -10z m116 -29 c-4 -6 -11 -11 -15 -11 -11 0 -21 37 -13 45 9 9 35
-22 28 -34z m-745 -14 c-13 -13 -15 1 -4 30 7 17 8 17 11 -1 2 -10 -1 -23 -7
-29z m90 30 c-1 -4 -1 -14 -1 -23 0 -13 -3 -14 -14 -4 -16 12 -10 43 6 38 5
-2 9 -7 9 -11z m-311 -17 c-8 -5 -17 -7 -19 -4 -3 3 1 9 9 14 8 5 17 7 19 4 3
-3 -1 -9 -9 -14z m190 -10 c0 -3 -9 -11 -20 -17 -20 -13 -20 -15 -4 34 4 15 6
15 14 3 6 -8 10 -17 10 -20z m287 -25 l-10 -34 -19 21 c-22 26 -22 27 -1 50
25 28 44 7 30 -37z m113 45 c0 -5 -4 -10 -10 -10 -5 0 -10 5 -10 10 0 6 5 10
10 10 6 0 10 -4 10 -10z m70 0 c0 -5 -4 -10 -10 -10 -5 0 -10 -7 -10 -15 0 -8
5 -15 10 -15 6 0 10 -7 10 -15 0 -9 9 -19 21 -23 17 -7 18 -10 7 -19 -7 -6
-24 -14 -38 -18 -24 -7 -24 -7 -8 12 17 18 17 20 -2 35 -10 9 -20 12 -22 7 -2
-6 -11 -7 -21 -3 -20 7 -17 31 3 26 14 -3 41 29 34 40 -3 5 2 8 10 8 9 0 16
-4 16 -10z m450 6 c0 -3 -4 -8 -10 -11 -5 -3 -10 -1 -10 4 0 6 5 11 10 11 6 0
10 -2 10 -4z m-1000 -36 c-18 -11 -24 -6 -16 16 5 14 9 15 19 5 9 -9 9 -14 -3
-21z m635 -18 c-5 -28 -25 -55 -25 -33 0 7 5 21 10 32 9 16 7 19 -10 19 -22 0
-27 16 -7 23 20 7 37 -14 32 -41z m-700 28 c3 -5 -1 -10 -10 -10 -9 0 -13 5
-10 10 3 6 8 10 10 10 2 0 7 -4 10 -10z m356 -7 c10 -11 10 -14 2 -9 -9 5 -13
1 -13 -13 0 -37 -18 -71 -35 -65 -17 7 -21 34 -5 34 6 0 10 -6 10 -12 0 -9 3
-8 9 2 6 8 7 18 4 23 -5 8 4 57 11 57 2 0 10 -8 17 -17z m158 5 c0 -7 -4 -22
-9 -33 -8 -20 -8 -20 -16 -1 -5 13 -3 21 4 24 7 2 10 8 6 13 -3 5 0 9 5 9 6 0
11 -6 10 -12z m308 -4 c14 -13 14 -17 2 -25 -23 -14 -29 -11 -29 16 0 29 5 31
27 9z m-1017 -9 c0 -8 -4 -15 -10 -15 -5 0 -10 7 -10 15 0 8 5 15 10 15 6 0
10 -7 10 -15z m1270 5 c0 -5 -5 -10 -11 -10 -5 0 -7 5 -4 10 3 6 8 10 11 10 2
0 4 -4 4 -10z m-1143 -35 c-10 -7 -16 -19 -15 -26 2 -7 -5 -15 -14 -17 -14 -3
-16 1 -11 15 8 23 44 55 52 47 3 -3 -2 -12 -12 -19z m298 -13 c0 -18 3 -32 8
-32 4 0 5 -5 1 -11 -10 -16 17 -29 37 -18 24 13 32 -4 9 -19 -15 -9 -21 -9
-27 1 -5 8 -9 4 -13 -12 -3 -14 -10 -26 -17 -28 -13 -5 -27 28 -14 36 5 3 7
20 4 36 -11 71 -11 86 0 82 7 -2 12 -18 12 -35z m64 24 c9 -11 8 -15 -5 -20
-23 -9 -24 -8 -24 14 0 23 13 26 29 6z m661 0 c0 -7 -7 -19 -15 -26 -12 -10
-15 -9 -15 7 0 11 3 23 7 26 11 12 23 8 23 -7z m-1120 -22 c0 -8 -4 -14 -10
-14 -5 0 -10 9 -10 21 0 11 5 17 10 14 6 -3 10 -13 10 -21z m168 14 c-6 -18
-28 -21 -28 -4 0 9 7 16 16 16 9 0 14 -5 12 -12z m907 2 c3 -5 -3 -10 -14 -10
-12 0 -21 5 -21 10 0 6 6 10 14 10 8 0 18 -4 21 -10z m-775 -9 c0 -21 -13 -41
-26 -41 -14 0 -19 31 -7 43 10 10 33 8 33 -2z m50 0 c0 -6 -4 -13 -10 -16 -5
-3 -10 1 -10 9 0 9 5 16 10 16 6 0 10 -4 10 -9z m300 -22 c0 -4 -9 -9 -21 -12
-11 -3 -23 -15 -26 -26 -3 -12 -9 -21 -14 -21 -16 0 -9 21 18 56 19 26 28 32
34 22 5 -7 9 -16 9 -19z m-410 11 c0 -5 -4 -10 -10 -10 -5 0 -10 5 -10 10 0 6
5 10 10 10 6 0 10 -4 10 -10z m295 -37 c-12 -18 -13 -21 -1 -17 7 3 16 -1 19
-9 4 -10 -2 -16 -18 -19 -27 -6 -40 14 -26 40 5 9 12 26 16 37 5 16 8 17 15 5
6 -10 4 -23 -5 -37z m444 28 c18 -11 25 -57 11 -66 -5 -3 -10 3 -10 13 0 11
-7 25 -15 32 -27 23 -16 40 14 21z m-399 -11 c0 -5 -4 -10 -10 -10 -5 0 -10 5
-10 10 0 6 5 10 10 10 6 0 10 -4 10 -10z m-416 -15 c-6 -16 -24 -21 -24 -7 0
11 11 22 21 22 5 0 6 -7 3 -15z m50 -10 c-14 -22 -52 -38 -41 -17 2 4 7 15 10
25 4 9 16 17 27 17 20 0 20 -1 4 -25z m150 -38 c-4 -18 -11 -23 -25 -20 -22 6
-23 13 -8 47 10 21 14 23 26 11 8 -9 11 -24 7 -38z m466 23 c0 -4 -11 -7 -25
-6 -28 1 -31 6 -13 24 12 12 38 -1 38 -18z m-590 -5 c0 -8 -2 -15 -4 -15 -2 0
-12 -3 -21 -7 -15 -5 -16 -3 -6 15 13 25 31 29 31 7z m545 -45 c3 -5 1 -10 -4
-10 -6 0 -11 5 -11 10 0 6 2 10 4 10 3 0 8 -4 11 -10z m-94 -17 c13 -17 13
-17 -6 -3 -11 8 -22 16 -24 17 -2 2 0 3 6 3 6 0 17 -8 24 -17z"/>
<path d="M5084 4903 l-321 -3 -6 -153 c-4 -83 -10 -197 -14 -251 -5 -79 -4
-98 7 -91 7 4 50 7 96 7 60 0 89 4 99 14 8 9 16 10 20 4 9 -14 55 -12 55 3 0
7 3 8 8 2 10 -15 135 -16 145 -2 6 9 10 9 14 0 2 -7 16 -13 29 -13 13 0 24 6
24 13 0 9 2 9 8 0 6 -9 65 -13 217 -13 l209 -2 -2 104 c-1 57 -5 167 -8 246
l-7 142 -126 -2 c-69 -2 -270 -4 -447 -5z m61 -203 c3 -5 1 -10 -4 -10 -6 0
-11 5 -11 10 0 6 2 10 4 10 3 0 8 -4 11 -10z m-165 -40 c0 -5 -4 -10 -10 -10
-5 0 -10 5 -10 10 0 6 5 10 10 10 6 0 10 -4 10 -10z m350 -30 c0 -5 -5 -10
-11 -10 -5 0 -7 5 -4 10 3 6 8 10 11 10 2 0 4 -4 4 -10z m-230 -20 c0 -5 -4
-10 -10 -10 -5 0 -10 5 -10 10 0 6 5 10 10 10 6 0 10 -4 10 -10z m440 -20 c0
-5 -5 -10 -11 -10 -5 0 -7 5 -4 10 3 6 8 10 11 10 2 0 4 -4 4 -10z m-527 -14
c21 -16 22 -26 2 -26 -8 0 -15 7 -15 16 0 8 -4 12 -10 9 -5 -3 -10 -1 -10 4 0
14 11 13 33 -3z m92 -26 c-3 -5 -11 -10 -16 -10 -6 0 -7 5 -4 10 3 6 11 10 16
10 6 0 7 -4 4 -10z m340 0 c3 -5 1 -10 -4 -10 -6 0 -11 5 -11 10 0 6 2 10 4
10 3 0 8 -4 11 -10z m-180 -10 c3 -5 -1 -10 -10 -10 -9 0 -13 5 -10 10 3 6 8
10 10 10 2 0 7 -4 10 -10z m90 -19 c3 -5 1 -12 -5 -16 -5 -3 -10 1 -10 9 0 18
6 21 15 7z m-445 -22 c0 -5 -4 -9 -10 -9 -5 0 -10 7 -10 16 0 8 5 12 10 9 6
-3 10 -10 10 -16z m60 11 c0 -5 -5 -10 -11 -10 -5 0 -7 5 -4 10 3 6 8 10 11
10 2 0 4 -4 4 -10z m150 0 c0 -5 -4 -10 -9 -10 -6 0 -13 5 -16 10 -3 6 1 10 9
10 9 0 16 -4 16 -10z m60 -5 c0 -8 -7 -15 -15 -15 -16 0 -20 12 -8 23 11 12
23 8 23 -8z m-80 -24 c0 -12 -20 -25 -27 -18 -7 7 6 27 18 27 5 0 9 -4 9 -9z
m150 -1 c0 -5 -4 -10 -10 -10 -5 0 -10 5 -10 10 0 6 5 10 10 10 6 0 10 -4 10
-10z m-235 -18 c0 -18 -20 -15 -23 4 -3 10 1 15 10 12 7 -3 13 -10 13 -16z
m178 1 c-7 -2 -19 -2 -25 0 -7 3 -2 5 12 5 14 0 19 -2 13 -5z m-263 -23 c0 -5
-4 -10 -10 -10 -5 0 -10 5 -10 10 0 6 5 10 10 10 6 0 10 -4 10 -10z"/>
<path d="M4390 4280 c0 -5 -33 -53 -73 -107 -40 -54 -87 -119 -105 -145 l-31
-48 1029 0 c845 0 1030 2 1030 13 0 7 -32 51 -70 98 -39 46 -87 110 -107 142
l-36 57 -819 -1 c-450 0 -818 -5 -818 -9z m980 -190 c0 -5 -2 -10 -4 -10 -3 0
-8 5 -11 10 -3 6 -1 10 4 10 6 0 11 -4 11 -10z m-240 -40 c0 -5 -4 -10 -10
-10 -5 0 -10 5 -10 10 0 6 5 10 10 10 6 0 10 -4 10 -10z"/>
<path d="M2538 3983 l-138 -4 0 -152 c0 -84 3 -182 7 -219 l6 -68 148 0 149 0
0 53 0 52 -97 0 -98 0 0 35 0 35 75 5 75 5 3 43 3 42 -80 0 -81 0 0 35 0 35
105 0 c116 0 111 -4 99 73 -5 26 -11 36 -23 35 -9 -1 -78 -4 -153 -5z"/>
<path d="M1510 3925 l0 -55 54 0 54 0 7 -165 7 -165 54 0 53 0 -6 165 -6 165
56 0 57 0 0 39 c0 22 3 46 6 55 5 14 -13 16 -165 16 l-171 0 0 -55z"/>
<path d="M1930 3777 c0 -113 3 -212 6 -221 4 -12 20 -16 55 -16 l49 0 0 85 0
85 64 0 63 0 7 -52 c3 -29 6 -68 6 -85 0 -33 0 -33 50 -33 l50 0 0 183 c0 100
3 199 7 220 l6 39 -59 -5 c-65 -5 -58 7 -62 -109 l-2 -58 -65 0 -65 0 0 80 0
80 -39 0 c-22 0 -46 3 -55 6 -14 5 -16 -16 -16 -199z"/>
<path d="M3377 3801 c-25 -38 -74 -93 -108 -122 -35 -30 -90 -80 -124 -111
l-60 -58 2098 0 c1590 0 2097 3 2097 12 0 6 -60 70 -134 142 -74 72 -143 146
-154 165 l-20 34 -244 -4 c-426 -7 -3242 -4 -3274 3 -30 7 -34 4 -77 -61z
m1093 -95 c0 -3 -4 -8 -10 -11 -5 -3 -10 -1 -10 4 0 6 5 11 10 11 6 0 10 -2
10 -4z m1070 0 c0 -3 -4 -8 -10 -11 -5 -3 -10 -1 -10 4 0 6 5 11 10 11 6 0 10
-2 10 -4z m160 -37 c0 -5 -4 -9 -10 -9 -5 0 -10 7 -10 16 0 8 5 12 10 9 6 -3
10 -10 10 -16z m-250 -45 c0 -8 -4 -12 -10 -9 -5 3 -10 10 -10 16 0 5 5 9 10
9 6 0 10 -7 10 -16z m-563 0 c-3 -3 -12 -4 -19 -1 -8 3 -5 6 6 6 11 1 17 -2
13 -5z m478 -4 c3 -5 1 -10 -4 -10 -6 0 -11 5 -11 10 0 6 2 10 4 10 3 0 8 -4
11 -10z m649 -5 c3 -8 1 -15 -4 -15 -6 0 -10 7 -10 15 0 8 2 15 4 15 2 0 6 -7
10 -15z m-959 -4 c3 -5 1 -12 -5 -16 -5 -3 -10 1 -10 9 0 18 6 21 15 7z m125
5 c0 -3 -4 -8 -10 -11 -5 -3 -10 -1 -10 4 0 6 5 11 10 11 6 0 10 -2 10 -4z
m-1385 -46 c3 -5 1 -10 -4 -10 -6 0 -11 5 -11 10 0 6 2 10 4 10 3 0 8 -4 11
-10z m732 -22 c-3 -7 -5 -2 -5 12 0 14 2 19 5 13 2 -7 2 -19 0 -25z m1018 13
c3 -5 1 -12 -5 -16 -5 -3 -10 1 -10 9 0 18 6 21 15 7z m160 -1 c3 -5 1 -10 -4
-10 -6 0 -11 5 -11 10 0 6 2 10 4 10 3 0 8 -4 11 -10z m932 -12 c-3 -8 -6 -5
-6 6 -1 11 2 17 5 13 3 -3 4 -12 1 -19z m-2023 -4 c3 -8 2 -12 -4 -9 -6 3 -10
10 -10 16 0 14 7 11 14 -7z m391 5 c11 -17 -1 -21 -15 -4 -8 9 -8 15 -2 15 6
0 14 -5 17 -11z m225 2 c0 -6 -4 -13 -10 -16 -5 -3 -10 1 -10 9 0 9 5 16 10
16 6 0 10 -4 10 -9z m175 -1 c3 -5 1 -10 -4 -10 -6 0 -11 5 -11 10 0 6 2 10 4
10 3 0 8 -4 11 -10z m680 0 c3 -5 1 -10 -4 -10 -6 0 -11 5 -11 10 0 6 2 10 4
10 3 0 8 -4 11 -10z m-1915 -10 c0 -5 -5 -10 -11 -10 -5 0 -7 5 -4 10 3 6 8
10 11 10 2 0 4 -4 4 -10z m1605 -9 c-3 -6 -11 -11 -17 -11 -6 0 -6 6 2 15 14
17 26 13 15 -4z"/>
<path d="M2320 3334 c-2 -45 -47 -323 -123 -759 -14 -77 -37 -216 -52 -310
-14 -93 -33 -194 -40 -222 l-13 -53 103 0 103 0 6 38 c3 20 11 79 18 130 l12
92 102 0 101 0 11 -57 c6 -32 14 -83 17 -113 11 -96 4 -90 116 -90 108 0 107
-1 89 60 -16 54 -39 163 -61 290 -11 63 -30 169 -44 235 -13 66 -33 181 -44
255 -12 74 -28 172 -36 216 -13 76 -37 243 -38 272 0 9 -26 12 -91 12 -50 0
-101 3 -113 6 -13 4 -23 2 -23 -2z m120 -454 c0 -12 58 -387 66 -422 l5 -26
-70 -4 -71 -3 0 56 c0 30 11 118 25 195 14 76 25 156 25 177 0 20 5 37 10 37
6 0 10 -4 10 -10z"/>
<path d="M3456 3245 l2 -90 99 -3 100 -3 -5 -580 -5 -580 104 3 104 3 3 578 2
577 95 0 96 0 -3 93 -3 92 -295 0 -295 0 1 -90z"/>
<path d="M4140 3335 c0 0 -1 -303 -3 -673 l-2 -672 105 0 105 0 0 673 0 672
-102 0 c-57 0 -103 0 -103 0z"/>
<path d="M4790 3332 l-116 -3 -13 -107 c-6 -59 -19 -143 -27 -187 -8 -44 -21
-120 -30 -170 -8 -49 -26 -151 -39 -225 -14 -74 -39 -216 -56 -315 -17 -99
-37 -214 -45 -255 -8 -41 -14 -76 -14 -77 0 -2 45 -3 99 -3 l99 0 6 28 c3 15
13 70 21 122 9 52 17 95 18 96 1 1 48 4 103 7 l102 6 10 -77 c6 -42 14 -101
17 -129 l7 -53 100 0 100 0 -6 28 c-3 15 -22 119 -41 232 -113 650 -149 872
-161 1003 -4 43 -10 79 -13 80 -3 1 -58 1 -121 -1z m10 -460 c0 -15 7 -61 16
-102 19 -92 54 -341 50 -349 -2 -3 -38 -5 -79 -3 l-75 3 9 37 c8 37 43 285 54
395 6 57 25 71 25 19z"/>
<path d="M6578 2664 l-3 -674 105 0 105 0 0 93 c0 309 6 468 17 465 11 -4 127
-401 148 -508 l10 -55 109 3 108 3 -14 60 c-7 33 -29 110 -48 172 -19 62 -49
167 -67 234 l-33 121 47 41 c25 23 56 62 68 86 21 43 22 56 18 238 -4 217 -11
241 -87 310 -65 58 -96 70 -201 74 -52 2 -137 5 -187 7 l-93 3 -2 -673z m344
455 c16 -22 20 -49 25 -190 l5 -165 -32 -27 c-31 -27 -63 -33 -107 -21 -23 6
-23 7 -23 221 l0 214 56 -3 c48 -3 60 -7 76 -29z"/>
<path d="M7260 2674 l0 -662 23 -6 c12 -4 122 -9 245 -13 l222 -6 0 96 0 97
-145 0 -145 0 0 138 c0 75 3 166 6 202 l6 65 107 0 106 0 3 86 3 86 -32 7
c-17 3 -67 6 -109 6 l-78 0 -7 50 c-4 28 -5 114 -4 190 l4 140 143 0 142 0 0
96 0 96 -245 -3 -245 -4 0 -661z"/>
<path d="M8010 3331 c-73 -23 -147 -88 -175 -155 -23 -54 -30 -169 -16 -238
13 -63 86 -183 189 -311 30 -39 79 -107 107 -153 47 -74 53 -90 58 -154 5 -54
2 -80 -9 -101 -27 -53 -85 -65 -123 -25 -20 21 -23 34 -22 101 1 57 -2 76 -12
72 -6 -2 -55 -12 -109 -22 l-96 -18 5 -56 c17 -179 118 -281 277 -281 127 0
208 45 257 145 30 61 31 66 27 181 -3 106 -6 125 -31 176 -16 32 -61 99 -100
149 -145 184 -167 215 -199 274 -26 49 -32 71 -32 124 0 59 3 66 32 92 39 35
53 36 87 6 23 -19 27 -33 34 -104 3 -45 9 -84 11 -86 3 -2 49 3 104 12 l98 16
-6 73 c-7 91 -30 144 -87 201 -76 77 -181 109 -269 82z"/>
<path d="M8629 3326 c-62 -22 -106 -55 -138 -102 -48 -73 -53 -99 -42 -223 12
-141 30 -180 157 -341 54 -69 119 -159 144 -200 42 -70 45 -80 48 -158 4 -76
2 -86 -19 -108 -31 -33 -81 -32 -114 1 -22 21 -25 33 -25 94 l0 70 -37 -6
c-21 -3 -67 -11 -103 -17 l-65 -12 3 -47 c6 -95 64 -206 130 -249 74 -49 183
-58 268 -23 48 20 113 83 140 137 21 41 24 61 24 150 0 84 -5 113 -23 158 -26
62 -97 170 -185 279 -114 142 -151 219 -152 317 0 80 27 113 90 104 34 -4 50
-36 61 -123 7 -48 14 -87 18 -87 3 0 31 7 61 15 30 8 71 15 91 15 20 0 38 2
40 5 13 12 -13 159 -35 203 -66 128 -213 193 -337 148z"/>
<path d="M1535 2661 l0 -671 105 0 105 0 -6 167 c-4 93 -7 214 -8 269 l-1 102
93 4 c105 5 149 23 209 85 62 64 68 90 68 292 0 155 -3 188 -20 233 -25 68
-69 121 -128 156 -46 26 -51 27 -232 30 l-185 3 0 -670z m330 472 c30 -29 35
-62 35 -228 l0 -164 -26 -20 c-20 -15 -41 -21 -80 -21 l-53 0 -3 225 -3 225
57 0 c39 0 62 -5 73 -17z"/>
<path d="M2858 3198 c-6 -250 -2 -1213 5 -1210 4 1 48 2 98 2 l91 0 -4 275
c-2 208 0 275 9 275 6 0 15 -15 18 -32 4 -18 27 -90 51 -161 23 -70 50 -164
59 -210 9 -45 21 -97 26 -114 l11 -33 110 0 c109 0 110 0 105 23 -2 12 -28
101 -57 197 -28 96 -64 218 -79 270 l-28 95 37 27 c20 15 49 50 64 79 l29 51
-2 191 c-2 167 -5 197 -22 237 -24 55 -69 103 -129 138 -43 26 -52 27 -217 30
l-172 4 -3 -134z m322 -74 c25 -24 25 -28 28 -198 l3 -173 -31 -27 c-25 -20
-42 -26 -81 -26 l-49 0 0 133 c0 72 3 176 7 229 l6 97 46 -6 c29 -3 55 -14 71
-29z m-210 -494 c0 -5 -4 -10 -10 -10 -5 0 -10 5 -10 10 0 6 5 10 10 10 6 0
10 -4 10 -10z"/>
<path d="M5215 2660 l-1 -670 233 0 232 0 3 95 3 95 -135 0 -135 0 3 575 3
575 -103 0 -103 0 0 -670z m105 -70 c0 -5 -4 -10 -10 -10 -5 0 -10 5 -10 10 0
6 5 10 10 10 6 0 10 -4 10 -10z m0 -94 c0 -3 -4 -8 -10 -11 -5 -3 -10 -1 -10
4 0 6 5 11 10 11 6 0 10 -2 10 -4z m25 -75 c3 -5 1 -12 -5 -16 -5 -3 -10 1
-10 9 0 18 6 21 15 7z m-25 -101 c0 -5 -4 -10 -10 -10 -5 0 -10 5 -10 10 0 6
5 10 10 10 6 0 10 -4 10 -10z m30 -60 c0 -5 -5 -10 -11 -10 -5 0 -7 5 -4 10 3
6 8 10 11 10 2 0 4 -4 4 -10z"/>
<path d="M5928 2660 c-2 -441 0 -671 7 -672 6 0 53 -2 105 -2 l95 -2 1 181 c0
99 1 219 2 266 l2 86 83 5 c92 5 143 24 192 73 61 62 65 80 65 322 0 208 -1
220 -24 269 -13 28 -41 65 -62 82 -64 53 -108 62 -296 62 l-168 0 -2 -670z
m333 464 c23 -25 24 -32 27 -192 4 -202 -4 -227 -73 -238 -85 -12 -80 -27 -80
229 l0 227 51 0 c41 0 55 -5 75 -26z m-221 -590 c0 -8 -5 -12 -10 -9 -6 4 -8
11 -5 16 9 14 15 11 15 -7z"/>
</g>
</svg>
